<svg xmlns="http://www.w3.org/2000/svg" xmlns:xlink="http://www.w3.org/1999/xlink" version="1.1" x="0px" y="0px" viewBox="0 0 80 100" enable-background="new 0 0 80 80" xml:space="preserve"><path fill="#000000" d="M68.25,24.975c0,0.002,0,0.005-0.003,0.011c0.049,1.489-2.626,3.806-2.626,3.806l-13.166,6.239  l-4.393,27.703l-3.488,1.354L42.77,43.389l-1.855-2.985L25.392,47.73L21.88,58.492l-0.756,0.479L19.1,48.707l-1.045-0.236  l-0.252-0.059l0.125-0.252l0.479-0.953l-6.655-8.072l0.85-0.283l10.549,4.107l15.506-7.364l-1.133-3.328L22.653,17.752l3.257-1.841  l24.215,14.161l13.169-6.23C63.294,23.842,68.25,22.992,68.25,24.975z"/><text x="0" y="95" fill="#000000" font-size="5px" font-weight="bold" font-family="'Helvetica Neue', Helvetica, Arial-Unicode, Arial, Sans-serif">Created by Maurizio Pedrazzoli</text><text x="0" y="100" fill="#000000" font-size="5px" font-weight="bold" font-family="'Helvetica Neue', Helvetica, Arial-Unicode, Arial, Sans-serif">from the Noun Project</text></svg>