<svg xmlns="http://www.w3.org/2000/svg" xmlns:xlink="http://www.w3.org/1999/xlink" version="1.1" x="0px" y="0px" viewBox="0 0 100 125" enable-background="new 0 0 100 100" xml:space="preserve"><path d="M68.584,18.207c0-3.983-3.241-7.226-7.227-7.226H38.64c-3.984,0-7.225,3.242-7.225,7.226v9.962h-5.168v60.849H73.75V28.169  h-5.166V18.207z M37.084,18.207c0-0.859,0.698-1.556,1.556-1.556h22.718c0.858,0,1.557,0.697,1.557,1.556v9.962h-25.83V18.207z"/><path d="M5,34.366v48.455c0,3.422,2.774,6.196,6.196,6.196h8.925V28.169h-8.925C7.774,28.169,5,30.943,5,34.366z"/><path d="M88.802,28.169h-8.925v60.849h8.925c3.422,0,6.198-2.774,6.198-6.196V34.366C95,30.943,92.224,28.169,88.802,28.169z"/><text x="0" y="115" fill="#000000" font-size="5px" font-weight="bold" font-family="'Helvetica Neue', Helvetica, Arial-Unicode, Arial, Sans-serif">Created by Aaron K. Kim</text><text x="0" y="120" fill="#000000" font-size="5px" font-weight="bold" font-family="'Helvetica Neue', Helvetica, Arial-Unicode, Arial, Sans-serif">from the Noun Project</text></svg>