<svg xmlns="http://www.w3.org/2000/svg" xmlns:xlink="http://www.w3.org/1999/xlink" version="1.1" x="0px" y="0px" viewBox="0 0 100 125" enable-background="new 0 0 100 100" xml:space="preserve"><path d="M44.6,25.2L44.6,25.2c-7.8-0.1-6.7-10.5-6.7-10.5c0.3-7,6.1-6.9,6.7-6.9c0.6,0,6.4-0.1,6.7,6.9  C51.4,14.7,52.5,25.1,44.6,25.2L44.6,25.2C44.7,25.2,44.7,25.2,44.6,25.2C44.6,25.2,44.6,25.2,44.6,25.2z M50.8,96.5l-5.2-27.8  c-0.1-0.5-0.5-0.8-1-0.8c-0.5,0-0.9,0.3-1,0.8l-5.2,27.8c-0.2,1.4-1.6,2.4-3,2.1c-1.3-0.2-2.3-1.4-2.2-2.7l2-36.6L23.2,49  c-2.1-1.8-2.3-4.9-0.5-7l10-10.8c0.3-0.3,0.6-0.6,0.9-0.8c2.8-1.9,5.9-3.2,5.9-3.2l2.7,8.6l1.6-4.5c-2.8-4,0.3-4.1,0.8-4.1h0  c0.4,0,3.6,0.1,0.8,4.1l1.6,4.5l2.7-8.6c0,0,2.4,1.1,4.9,2.7c0.4,0.3,0.8,0.6,1.2,0.9l8.3,7.1l9.7-9.6c1.2-1.1,3.1-1,4.1,0.3  c0.8,1,0.6,2.5-0.2,3.5l-10.3,12c-1.9,2.1-5.1,2.4-7.2,0.6l-4.6-3.8L54,59.3L56,96c0.1,1.3-0.9,2.5-2.2,2.7  C52.4,98.9,51,98,50.8,96.5z M35.4,51.9l-1.1-10.7l-5,4.5L35.4,51.9z M58.9,19.8c-3.9-4.4-3.7-11.1,0.5-15.3  c4.4-4.4,11.4-4.4,15.8,0s4.4,11.4,0,15.8c-3.7,3.7-9.3,4.2-13.5,1.7l0,0c-1.7,1.3-3.5,1.5-4.7,1.3c-0.4-0.1-0.5-0.6-0.1-0.8  c1.2-0.6,1.9-1.7,2.3-2.6L58.9,19.8z M58.8,12.4c0,4.7,3.8,8.5,8.5,8.5s8.5-3.8,8.5-8.5S72,3.9,67.3,3.9S58.8,7.7,58.8,12.4z   M67.3,13.6c0.7,0,1.2-0.5,1.2-1.2s-0.5-1.2-1.2-1.2c-0.7,0-1.2,0.5-1.2,1.2S66.6,13.6,67.3,13.6z M71.5,13.6c0.7,0,1.2-0.5,1.2-1.2  s-0.5-1.2-1.2-1.2s-1.2,0.5-1.2,1.2S70.9,13.6,71.5,13.6z M63.1,13.6c0.7,0,1.2-0.5,1.2-1.2s-0.5-1.2-1.2-1.2  c-0.7,0-1.2,0.5-1.2,1.2S62.4,13.6,63.1,13.6z"/><text x="0" y="115" fill="#000000" font-size="5px" font-weight="bold" font-family="'Helvetica Neue', Helvetica, Arial-Unicode, Arial, Sans-serif">Created by Gregor Črešnar</text><text x="0" y="120" fill="#000000" font-size="5px" font-weight="bold" font-family="'Helvetica Neue', Helvetica, Arial-Unicode, Arial, Sans-serif">from the Noun Project</text></svg>