<svg xmlns="http://www.w3.org/2000/svg" xmlns:xlink="http://www.w3.org/1999/xlink" version="1.1" x="0px" y="0px" viewBox="0 0 100 125" style="enable-background:new 0 0 100 100;" xml:space="preserve"><style type="text/css">
	.st0{fill-rule:evenodd;clip-rule:evenodd;}
	.st1{fill:#D8D5CA;}
</style><g><polygon points="58.9,20.2 62.6,9.4 37.4,9.4 40.2,20.2  "/><path d="M58.7,25.4v0.1H40.4l-1.6,1.2C28.4,33.3,21.1,48,21.1,59.2C21.1,74,34,86,49.9,86c15.9,0,28.8-12,28.8-26.8   C78.7,47.2,70.3,31.2,58.7,25.4z M59.6,52.1V56h-5.9l-0.6,1.2v1.9h6.5v3.9h-6.5v5.7h-6.3v-5.7h-6.5v-3.9h6.5v-1.9L46.2,56h-5.9   v-3.9h3.9l-6.3-12.9h6.7l5.5,12.9l5.3-12.9h6.7l-6.4,12.9H59.6z"/></g><text x="0" y="115" fill="#000000" font-size="5px" font-weight="bold" font-family="'Helvetica Neue', Helvetica, Arial-Unicode, Arial, Sans-serif">Created by Mike Ashley</text><text x="0" y="120" fill="#000000" font-size="5px" font-weight="bold" font-family="'Helvetica Neue', Helvetica, Arial-Unicode, Arial, Sans-serif">from the Noun Project</text></svg>