<?xml version="1.0" encoding="utf-8"?><!DOCTYPE svg PUBLIC "-//W3C//DTD SVG 1.1//EN" "http://www.w3.org/Graphics/SVG/1.1/DTD/svg11.dtd"><svg version="1.1" xmlns="http://www.w3.org/2000/svg" xmlns:xlink="http://www.w3.org/1999/xlink" x="0px" y="0px" viewBox="0 0 100 85.9075" enable-background="new 0 0 100 68.726" xml:space="preserve"><path fill="#010101" d="M64.911,0c-2.767,0-3.022,2.141-4.422,3.679C54.501,11.332,48.646,20.79,33.198,20.79H9.802
	C5.471,20.759,0,22.678,0,32.482c0,13.074,10.151,12.596,10.151,12.596v-0.024h3.455L26.623,66.54
	c1.265,1.519,3.537,2.908,5.688,1.769l7.855-3.999L29.022,45.054h4.174c14.263,0,19.678,7.749,25.829,14.67l0.004-0.01
	c0,0,0.063,0.075,0.16,0.191c0.249,0.28,0.49,0.56,0.728,0.837c1.394,1.578,2.984,4.371,5.118,4.332
	c2.271-0.289,2.913-1.686,2.913-3.34V3.353C67.949,1.66,66.879,0,64.911,0z M20.431,37.98H10.317c-0.884,0-1.769-0.884-1.769-1.771
	c0-0.884,0.886-1.645,1.769-1.645h10.114c0.884,0,1.641,0.761,1.641,1.645C22.072,37.094,21.314,37.98,20.431,37.98z M20.431,30.647
	H10.317c-0.884,0-1.769-0.884-1.769-1.767c0-0.887,0.886-1.643,1.769-1.643h10.114c0.884,0,1.641,0.756,1.641,1.643
	C22.072,29.764,21.314,30.647,20.431,30.647z M59.608,49.351c-7.961-7.959-12.765-9.985-24.771-9.985V26.354
	c12.007,0,16.937-2.148,24.771-10.492V49.351z"/><path fill="#010101" d="M81.662,18.974c-1.281-1.281-3.353-1.279-4.633-0.002c-1.278,1.279-1.278,3.352,0,4.634
	c2.37,2.371,3.676,5.523,3.676,8.876c0,3.353-1.307,6.509-3.676,8.875c-1.278,1.282-1.278,3.358,0,4.636
	c0.64,0.636,1.479,0.954,2.316,0.954c0.838,0,1.676-0.32,2.315-0.958c3.611-3.611,5.596-8.406,5.596-13.508
	C87.255,27.38,85.27,22.584,81.662,18.974z"/><path fill="#010101" d="M91.213,11.266c-1.279-1.279-3.352-1.279-4.632,0c-1.278,1.278-1.278,3.353,0,4.631
	c4.431,4.432,6.867,10.322,6.867,16.584c0,6.266-2.437,12.153-6.867,16.585c-1.278,1.277-1.278,3.352,0,4.632
	c0.64,0.638,1.478,0.958,2.316,0.958c0.837,0,1.677-0.32,2.315-0.958C96.88,48.028,100,40.497,100,32.481
	S96.88,16.936,91.213,11.266z"/><text x="0" y="83.726" fill="#000000" font-size="5px" font-weight="bold" font-family="'Helvetica Neue', Helvetica, Arial-Unicode, Arial, Sans-serif">Created by Rémy Médard</text><text x="0" y="88.726" fill="#000000" font-size="5px" font-weight="bold" font-family="'Helvetica Neue', Helvetica, Arial-Unicode, Arial, Sans-serif">from the Noun Project</text></svg>