<svg xmlns="http://www.w3.org/2000/svg" xmlns:xlink="http://www.w3.org/1999/xlink" version="1.1" x="0px" y="0px" viewBox="0 0 100 125" enable-background="new 0 0 100 100" xml:space="preserve"><g><path fill="#000000" d="M72.789,0.86c-10.921-0.052-19.84,8.755-19.892,19.686c-0.053,10.94,8.752,19.845,19.689,19.897   c10.923,0.064,19.838-8.752,19.896-19.694C92.542,9.821,83.731,0.918,72.789,0.86z M72.777,4.056   c3.505,0.021,6.34,2.875,6.317,6.378c-0.023,3.513-2.877,6.346-6.388,6.32c-3.51-0.015-6.333-2.874-6.316-6.385   C66.413,6.866,69.268,4.042,72.777,4.056z M75.247,20.67c-0.004,1.375-1.14,2.485-2.51,2.479c-1.379-0.006-2.481-1.133-2.481-2.504   c0-1.383,1.128-2.496,2.51-2.485C74.132,18.167,75.253,19.291,75.247,20.67z M56.092,20.57c0.019-3.51,2.879-6.346,6.388-6.323   c3.511,0.023,6.336,2.88,6.323,6.389c-0.03,3.502-2.893,6.335-6.392,6.317C58.907,26.941,56.076,24.08,56.092,20.57z    M72.609,37.251c-3.516-0.018-6.346-2.877-6.328-6.384c0.022-3.513,2.883-6.337,6.386-6.323c3.511,0.023,6.341,2.877,6.315,6.388   C78.967,34.433,76.107,37.274,72.609,37.251z M82.901,27.058c-3.505-0.02-6.336-2.871-6.317-6.384   c0.021-3.508,2.876-6.337,6.388-6.326c3.504,0.023,6.332,2.879,6.314,6.384C89.271,24.248,86.409,27.078,82.901,27.058z"/><path fill="#000000" d="M34.377,9.714C25.886,9.671,18.972,16.519,18.925,25c-0.04,8.487,6.799,15.41,15.29,15.443   c8.484,0.056,15.412-6.79,15.446-15.277C49.712,16.67,42.867,9.76,34.377,9.714z M34.36,12.19c2.731,0.02,4.922,2.243,4.916,4.957   c-0.017,2.734-2.243,4.928-4.974,4.913c-2.714-0.017-4.917-2.23-4.894-4.951C29.42,14.377,31.64,12.178,34.36,12.19z    M36.277,25.099c0,1.067-0.882,1.924-1.947,1.921c-1.068,0-1.935-0.889-1.929-1.941c0.012-1.072,0.879-1.94,1.954-1.932   C35.417,23.152,36.283,24.019,36.277,25.099z M21.406,25.009c0.012-2.722,2.238-4.916,4.963-4.905   c2.725,0.012,4.916,2.243,4.904,4.965c-0.011,2.72-2.231,4.926-4.963,4.905C23.591,29.952,21.389,27.738,21.406,25.009z    M34.231,37.968c-2.72-0.011-4.922-2.22-4.916-4.958c0.017-2.721,2.243-4.915,4.968-4.904c2.72,0.015,4.922,2.241,4.899,4.951   C39.171,35.785,36.958,37.982,34.231,37.968z M42.222,30.056c-2.726-0.02-4.911-2.23-4.899-4.96   c0.011-2.724,2.232-4.916,4.951-4.913c2.726,0.026,4.922,2.244,4.905,4.966C47.167,27.877,44.948,30.065,42.222,30.056z"/></g><path fill="#000000" d="M92.219,42.519H21.333c-1.581,0-2.865,1.099-2.865,2.452v8.761l-2.699-1.532  c-0.081-0.08-0.163-0.133-0.246-0.133c-0.315,0-0.605,0.621-0.864,1.627l-7.386-4.195c-0.099-0.1-0.198-0.164-0.299-0.164  c-1.214,0-2.202,7.106-2.202,15.871c0,8.768,0.988,15.87,2.202,15.87c0.064,0,0.127-0.028,0.189-0.065v0.027l7.535-4.179  c0.246,0.92,0.525,1.486,0.825,1.486c0.052,0,0.104-0.022,0.153-0.056v0.024l2.792-1.549v8.675c0,1.355,1.284,2.453,2.865,2.453  h6.785L24.14,95.73c-0.738,1.456-0.157,3.232,1.296,3.971c0.43,0.218,0.887,0.319,1.333,0.319c1.078,0,2.116-0.589,2.636-1.616  l5.334-10.512h44.07l5.334,10.512c0.521,1.027,1.559,1.616,2.637,1.616c0.447,0,0.902-0.102,1.334-0.319  c1.452-0.738,2.033-2.515,1.295-3.971l-3.977-7.838h6.786c1.587,0,2.865-1.098,2.865-2.453V44.97  C95.084,43.617,93.806,42.519,92.219,42.519z"/><text x="0" y="115" fill="#000000" font-size="5px" font-weight="bold" font-family="'Helvetica Neue', Helvetica, Arial-Unicode, Arial, Sans-serif">Created by Sma-rtez</text><text x="0" y="120" fill="#000000" font-size="5px" font-weight="bold" font-family="'Helvetica Neue', Helvetica, Arial-Unicode, Arial, Sans-serif">from the Noun Project</text></svg>