<svg xmlns="http://www.w3.org/2000/svg" xmlns:xlink="http://www.w3.org/1999/xlink" version="1.1" x="0px" y="0px" viewBox="0 0 100 125" enable-background="new 0 0 100 100" xml:space="preserve"><g><path d="M18.627,19.017c-2.392,0-4.361,1.996-4.361,4.385v40.386c0,2.39,1.97,4.356,4.361,4.356h15.025l-7.344,11.579   c-0.281,0.338-0.168,0.899,0.197,1.152c0.366,0.225,0.928,0.084,1.125-0.309l7.681-12.086c0.056-0.112,0.113-0.225,0.113-0.337   h13.787v12.001c0,0.422,0.366,0.814,0.788,0.814s0.787-0.393,0.787-0.814V68.145h13.759c0,0.112,0.057,0.225,0.113,0.337   l7.682,12.086c0.195,0.393,0.758,0.533,1.125,0.309c0.365-0.253,0.479-0.814,0.197-1.152L66.32,68.145h15.053   c2.391,0,4.361-1.967,4.361-4.356V23.402c0-2.389-1.971-4.385-4.361-4.385H18.627L18.627,19.017z M18.627,20.591h62.746   c1.547,0,2.785,1.264,2.785,2.811v40.386c0,1.546-1.238,2.782-2.785,2.782H18.627c-1.548,0-2.786-1.236-2.786-2.782V23.402   C15.842,21.855,17.08,20.591,18.627,20.591L18.627,20.591z M67.557,24.189c-5.232,0-9.51,4.271-9.51,9.527s4.277,9.555,9.51,9.555   c5.262,0,9.539-4.299,9.539-9.555S72.818,24.189,67.557,24.189L67.557,24.189z M66.742,25.847c0.027,0,0.027,0,0.027,0   c0,0.027,0,0.056,0,0.084v15.598c0,0.028,0,0.057,0,0.084c-4.023-0.393-7.146-3.766-7.146-7.896   C59.623,29.584,62.746,26.24,66.742,25.847L66.742,25.847z M68.373,25.847c3.771,0.365,6.754,3.316,7.119,7.109   c-0.027,0-0.084,0-0.113,0h-7.006v-7.025C68.373,25.903,68.373,25.875,68.373,25.847L68.373,25.847z M69.498,34.531h5.881   c0.029,0,0.086,0,0.113,0c-0.168,1.602-0.816,3.035-1.773,4.216c-0.027-0.028-0.055-0.028-0.084-0.056L69.498,34.531L69.498,34.531   z M68.373,35.656l4.164,4.158c0.029,0.029,0.057,0.057,0.057,0.085c-1.152,0.956-2.617,1.573-4.221,1.714c0-0.027,0-0.056,0-0.084   V35.656L68.373,35.656z M23.523,36.358c-0.422,0.028-0.759,0.45-0.731,0.843c0.056,0.422,0.45,0.759,0.873,0.73h17.867   c0.422,0,0.816-0.365,0.816-0.787c0-0.421-0.394-0.814-0.816-0.786H23.664c-0.028-0.028-0.057-0.028-0.057,0   C23.58,36.33,23.551,36.33,23.523,36.358L23.523,36.358z M23.607,44.058c-0.422,0-0.788,0.422-0.76,0.815   c0,0.421,0.394,0.786,0.816,0.759h30.67c0.422,0,0.814-0.365,0.814-0.787s-0.393-0.787-0.814-0.787h-30.67   C23.636,44.058,23.636,44.058,23.607,44.058L23.607,44.058z M23.439,51.788c-0.394,0.056-0.732,0.478-0.675,0.899   c0.056,0.421,0.478,0.73,0.9,0.674h52.645c0.422,0.028,0.787-0.365,0.787-0.787c0-0.421-0.365-0.786-0.787-0.786H23.664   c-0.028,0-0.084,0-0.141,0C23.495,51.788,23.467,51.788,23.439,51.788L23.439,51.788z M23.439,59.488   c-0.394,0.057-0.732,0.506-0.675,0.899c0.056,0.422,0.478,0.759,0.9,0.703h52.645c0.422,0,0.787-0.394,0.787-0.815   c0-0.394-0.365-0.787-0.787-0.787H23.664c-0.028,0-0.084,0-0.141,0C23.495,59.488,23.467,59.488,23.439,59.488L23.439,59.488z"/></g><text x="0" y="115" fill="#000000" font-size="5px" font-weight="bold" font-family="'Helvetica Neue', Helvetica, Arial-Unicode, Arial, Sans-serif">Created by artworkbean</text><text x="0" y="120" fill="#000000" font-size="5px" font-weight="bold" font-family="'Helvetica Neue', Helvetica, Arial-Unicode, Arial, Sans-serif">from the Noun Project</text></svg>