<svg xmlns="http://www.w3.org/2000/svg" xmlns:xlink="http://www.w3.org/1999/xlink" xmlns:sketch="http://www.bohemiancoding.com/sketch/ns" viewBox="0 0 30 37.5" version="1.1" x="0px" y="0px"><title>building_019-tower-company-house-office</title><desc>Created with Sketch.</desc><g stroke="none" stroke-width="1" fill="none" fill-rule="evenodd" sketch:type="MSPage"><g sketch:type="MSArtboardGroup" transform="translate(-405.000000, -90.000000)" fill="#000000"><g sketch:type="MSLayerGroup" transform="translate(414.000000, 90.000000)"><path d="M3,24.5 C3,24.2238576 3.22385763,24 3.5,24 L5.5,24 C5.77614237,24 6,24.2238576 6,24.5 L6,30 L5,30 L5,25 L4,25 L4,30 L3,30 L3,24.5 Z" sketch:type="MSShapeGroup"/><path d="M7,24.5 C7,24.2238576 7.22385763,24 7.5,24 L9.5,24 C9.77614237,24 10,24.2238576 10,24.5 L10,30 L9,30 L9,25 L8,25 L8,30 L7,30 L7,24.5 Z" sketch:type="MSShapeGroup"/><path d="M5,2.5 C5,2.22385763 5.22385763,2 5.5,2 L7.5,2 C7.77614237,2 8,2.22385763 8,2.5 L8,6 L7,6 L7,3 L6,3 L6,6 L5,6 L5,2.5 Z" sketch:type="MSShapeGroup"/><path d="M3,5.5 C3,5.22385763 3.22385763,5 3.5,5 L9.5,5 C9.77614237,5 10,5.22385763 10,5.5 L10,11 L9,11 L9,6 L4,6 L4,11 L3,11 L3,5.5 Z" sketch:type="MSShapeGroup"/><path d="M1,10.5 C1,10.2238576 1.22385763,10 1.5,10 L11.5,10 C11.7761424,10 12,10.2238576 12,10.5 L12,30 L11,30 L11,11 L2,11 L2,30 L1,30 L1,10.5 Z" sketch:type="MSShapeGroup"/><path d="M12.5,30 C12.7761424,30 13,29.7761424 13,29.5 C13,29.2238576 12.7761424,29 12.5,29 L0.5,29 C0.223857625,29 0,29.2238576 0,29.5 C0,29.7761424 0.223857625,30 0.5,30 L12.5,30 Z" sketch:type="MSShapeGroup"/><path d="M5.5,23 C5.77614237,23 6,22.7761424 6,22.5 L6,21.5 C6,21.2238576 5.77614237,21 5.5,21 C5.22385763,21 5,21.2238576 5,21.5 L5,22.5 C5,22.7761424 5.22385763,23 5.5,23 Z" sketch:type="MSShapeGroup"/><path d="M3.5,23 C3.77614237,23 4,22.7761424 4,22.5 L4,21.5 C4,21.2238576 3.77614237,21 3.5,21 C3.22385763,21 3,21.2238576 3,21.5 L3,22.5 C3,22.7761424 3.22385763,23 3.5,23 Z" sketch:type="MSShapeGroup"/><path d="M9.5,23 C9.77614237,23 10,22.7761424 10,22.5 L10,21.5 C10,21.2238576 9.77614237,21 9.5,21 C9.22385763,21 9,21.2238576 9,21.5 L9,22.5 C9,22.7761424 9.22385763,23 9.5,23 Z" sketch:type="MSShapeGroup"/><path d="M7.5,23 C7.77614237,23 8,22.7761424 8,22.5 L8,21.5 C8,21.2238576 7.77614237,21 7.5,21 C7.22385763,21 7,21.2238576 7,21.5 L7,22.5 C7,22.7761424 7.22385763,23 7.5,23 Z" sketch:type="MSShapeGroup"/><path d="M5.5,20 C5.77614237,20 6,19.7761424 6,19.5 L6,18.5 C6,18.2238576 5.77614237,18 5.5,18 C5.22385763,18 5,18.2238576 5,18.5 L5,19.5 C5,19.7761424 5.22385763,20 5.5,20 Z" sketch:type="MSShapeGroup"/><path d="M3.5,20 C3.77614237,20 4,19.7761424 4,19.5 L4,18.5 C4,18.2238576 3.77614237,18 3.5,18 C3.22385763,18 3,18.2238576 3,18.5 L3,19.5 C3,19.7761424 3.22385763,20 3.5,20 Z" sketch:type="MSShapeGroup"/><path d="M9.5,20 C9.77614237,20 10,19.7761424 10,19.5 L10,18.5 C10,18.2238576 9.77614237,18 9.5,18 C9.22385763,18 9,18.2238576 9,18.5 L9,19.5 C9,19.7761424 9.22385763,20 9.5,20 Z" sketch:type="MSShapeGroup"/><path d="M7.5,20 C7.77614237,20 8,19.7761424 8,19.5 L8,18.5 C8,18.2238576 7.77614237,18 7.5,18 C7.22385763,18 7,18.2238576 7,18.5 L7,19.5 C7,19.7761424 7.22385763,20 7.5,20 Z" sketch:type="MSShapeGroup"/><path d="M5.5,17 C5.77614237,17 6,16.7761424 6,16.5 L6,15.5 C6,15.2238576 5.77614237,15 5.5,15 C5.22385763,15 5,15.2238576 5,15.5 L5,16.5 C5,16.7761424 5.22385763,17 5.5,17 Z" sketch:type="MSShapeGroup"/><path d="M3.5,17 C3.77614237,17 4,16.7761424 4,16.5 L4,15.5 C4,15.2238576 3.77614237,15 3.5,15 C3.22385763,15 3,15.2238576 3,15.5 L3,16.5 C3,16.7761424 3.22385763,17 3.5,17 Z" sketch:type="MSShapeGroup"/><path d="M9.5,17 C9.77614237,17 10,16.7761424 10,16.5 L10,15.5 C10,15.2238576 9.77614237,15 9.5,15 C9.22385763,15 9,15.2238576 9,15.5 L9,16.5 C9,16.7761424 9.22385763,17 9.5,17 Z" sketch:type="MSShapeGroup"/><path d="M7.5,17 C7.77614237,17 8,16.7761424 8,16.5 L8,15.5 C8,15.2238576 7.77614237,15 7.5,15 C7.22385763,15 7,15.2238576 7,15.5 L7,16.5 C7,16.7761424 7.22385763,17 7.5,17 Z" sketch:type="MSShapeGroup"/><path d="M5.5,14 C5.77614237,14 6,13.7761424 6,13.5 L6,12.5 C6,12.2238576 5.77614237,12 5.5,12 C5.22385763,12 5,12.2238576 5,12.5 L5,13.5 C5,13.7761424 5.22385763,14 5.5,14 Z" sketch:type="MSShapeGroup"/><path d="M3.5,14 C3.77614237,14 4,13.7761424 4,13.5 L4,12.5 C4,12.2238576 3.77614237,12 3.5,12 C3.22385763,12 3,12.2238576 3,12.5 L3,13.5 C3,13.7761424 3.22385763,14 3.5,14 Z" sketch:type="MSShapeGroup"/><path d="M9.5,14 C9.77614237,14 10,13.7761424 10,13.5 L10,12.5 C10,12.2238576 9.77614237,12 9.5,12 C9.22385763,12 9,12.2238576 9,12.5 L9,13.5 C9,13.7761424 9.22385763,14 9.5,14 Z" sketch:type="MSShapeGroup"/><path d="M7.5,14 C7.77614237,14 8,13.7761424 8,13.5 L8,12.5 C8,12.2238576 7.77614237,12 7.5,12 C7.22385763,12 7,12.2238576 7,12.5 L7,13.5 C7,13.7761424 7.22385763,14 7.5,14 Z" sketch:type="MSShapeGroup"/><path d="M5.5,9 C5.77614237,9 6,8.77614237 6,8.5 L6,7.5 C6,7.22385763 5.77614237,7 5.5,7 C5.22385763,7 5,7.22385763 5,7.5 L5,8.5 C5,8.77614237 5.22385763,9 5.5,9 Z" sketch:type="MSShapeGroup"/><path d="M7,3 L7,0.5 C7,0.223857625 6.77614237,0 6.5,0 C6.22385763,0 6,0.223857625 6,0.5 L6,3 L7,3 Z" sketch:type="MSShapeGroup"/><path d="M7.5,9 C7.77614237,9 8,8.77614237 8,8.5 L8,7.5 C8,7.22385763 7.77614237,7 7.5,7 C7.22385763,7 7,7.22385763 7,7.5 L7,8.5 C7,8.77614237 7.22385763,9 7.5,9 Z" sketch:type="MSShapeGroup"/></g></g></g><text x="0" y="45" fill="#000000" font-size="5px" font-weight="bold" font-family="'Helvetica Neue', Helvetica, Arial-Unicode, Arial, Sans-serif">Created by Pham Thi Dieu Linh</text><text x="0" y="50" fill="#000000" font-size="5px" font-weight="bold" font-family="'Helvetica Neue', Helvetica, Arial-Unicode, Arial, Sans-serif">from the Noun Project</text></svg>