<svg xmlns="http://www.w3.org/2000/svg" xmlns:xlink="http://www.w3.org/1999/xlink" version="1.1" x="0px" y="0px" viewBox="0 0 100 125" enable-background="new 0 0 100 100" xml:space="preserve"><g><g><g><g><g><path fill="#000000" d="M95.4,62.2c-0.2,0.3-0.5,0.5-0.8,0.5c-0.2,0-0.4-0.1-0.5-0.2l-10.7-6.7c-0.5-0.3-0.6-0.9-0.3-1.4       c0.3-0.5,0.9-0.6,1.4-0.3l10.7,6.6C95.6,61.1,95.7,61.7,95.4,62.2z"/><path fill="#000000" d="M89,36L70.9,19.5l-1.4-1.3l-0.1-0.1l-1.5-1.3l-1.5-1.4c-2.1-1.9-4.9-3-7.8-3c-2.2,0-4.3,0.6-6.1,1.7       c-0.4,0.2-0.7,0.5-1,0.7l-0.6,0.5l-1.3,1l-1.4-1l-1.1-0.8c-0.1-0.1-0.3-0.2-0.4-0.2l-0.1-0.1c-1.9-1.2-4-1.8-6.2-1.8       c-2.2,0-4.4,0.6-6.2,1.8c-0.6,0.4-1.1,0.8-1.6,1.3c0,0-0.1,0.1-0.1,0.1L30,17.7l-1.1,1L11,36.1c-0.9,0.8-1,2.2-0.4,3.2       l8.6,13.4c5.9,9.1,16.5,14.8,27.8,14.8h5.2c11,0,21.1-5.2,27.2-13.8l9.9-14.2C90.1,38.3,89.9,36.9,89,36z M87.7,38.2l-9.9,14.2       c-5.6,8.1-15.3,13-25.5,13H47c-10.7,0-20.6-5.2-26.1-13.9l-8.6-13.4c-0.1-0.2-0.1-0.5,0.1-0.7l18-17.4l1.1-1l2.3-2.2       c0,0,0,0,0.1-0.1c0.4-0.4,0.9-0.8,1.3-1.1c1.6-1,3.4-1.5,5.2-1.5c1.8,0,3.6,0.5,5.2,1.5c0.1,0.1,0.3,0.2,0.4,0.3l1.1,0.8       l2.4,1.7l0.3,0.2l0.8-0.6l1.6-1.3l0.6-0.5c0.3-0.2,0.6-0.4,0.9-0.6c1.5-0.9,3.3-1.4,5-1.4c2.3,0,4.6,0.8,6.4,2.5l1.5,1.4       l1.5,1.3l0.1,0.1l1.4,1.3l18.1,16.5C87.8,37.7,87.9,38,87.7,38.2z"/><path fill="#000000" d="M84.5,75.6c-0.2,0.2-0.4,0.2-0.6,0.2c-0.3,0-0.6-0.1-0.8-0.3L75,66.1c-0.4-0.4-0.3-1,0.1-1.4       c0.4-0.4,1-0.3,1.4,0.1l8.1,9.4C85,74.6,85,75.3,84.5,75.6z"/><path fill="#000000" d="M69.4,84.5c-0.1,0-0.2,0-0.3,0c-0.4,0-0.8-0.3-1-0.7l-3.6-12.4c-0.2-0.5,0.1-1.1,0.7-1.2       c0.5-0.1,1.1,0.2,1.2,0.7l3.6,12.5C70.2,83.8,69.9,84.4,69.4,84.5z"/><path fill="#000000" d="M51,72.9v12.8c0,0.5-0.5,1-1,1s-1-0.5-1-1V72.9c0-0.6,0.5-1,1-1S51,72.3,51,72.9z"/><path fill="#000000" d="M34.7,70.2c0.5,0.2,0.8,0.7,0.7,1.2l-3.6,12.4c-0.1,0.4-0.5,0.7-1,0.7c-0.1,0-0.2,0-0.3,0       c-0.5-0.2-0.8-0.7-0.7-1.2l3.6-12.4C33.6,70.3,34.2,70,34.7,70.2z"/><path fill="#000000" d="M77.5,37.1l-8-4.4l-1.1-0.6l-7.3-4.1c-0.4-0.2-0.8-0.4-1.1-0.5c-0.3-0.1-0.7-0.2-1.1-0.3       C58.1,27,57.3,27,56.4,27c-0.2,0-0.4,0-0.6,0c-0.6,0-1.1,0.1-1.7,0.2c-0.4,0.1-0.7,0.2-1.1,0.3c-0.3,0.1-0.7,0.2-1,0.4l0,0       c-0.5,0.2-1,0.4-1.5,0.5c-0.3,0-0.5,0.1-0.8,0.1c-0.1,0-0.2,0-0.3,0c-0.7,0-1.3-0.2-1.9-0.4L47,27.7c-1.2-0.5-2.7-0.8-4.1-0.8       c-0.6,0-1.3,0-1.9,0.2c-0.4,0.1-0.7,0.1-1.1,0.2c-0.7,0.2-1.4,0.5-2,0.8l-6.5,3.8l-1.1,0.6l-7.9,4.6c-0.3,0.2-0.4,0.6-0.1,0.9       l6,5.7c1.2,1.1,2.6,2.1,4.2,2.9c0.5,0.2,1,0.5,1.5,0.7l0,0c3.9,1.7,8.7,2.9,13.7,2.9h3.9c5.2,0,10.3-1.3,14.2-3.1       c0-0.1,0,0.1,0,0h0c0.5-0.2,1-0.5,1.5-0.8c1.2-0.7,2.3-1.4,3.2-2.2l7-6.1C77.9,37.8,77.9,37.3,77.5,37.1z M50.5,30.3       c0.1,0,0.2,0,0.3,0c0.7-0.1,1.4-0.3,2.1-0.6c1-0.5,2.2-0.7,3.5-0.7c0.7,0,1.5,0.1,2.1,0.2c0.1,0,0.3,0.1,0.5,0.1v4.2       c0,0.7-0.6,1.3-1.3,1.3h-5.8c-0.7,0-1.3-0.6-1.3-1.3V30.3z M41,29.1c0.1,0,0.2,0,0.3-0.1c0.5-0.1,1-0.1,1.6-0.1       c1.2,0,2.4,0.2,3.3,0.6l0.5,0.2c0.8,0.4,1.7,0.6,2.6,0.6h0.1v3.2c0,0.7-0.6,1.3-1.3,1.3h-5.8c-0.7,0-1.3-0.6-1.3-1.3V29.1z        M32.7,34.8c-0.5,0-0.9-0.3-1.2-0.7l0.9-0.5l6.5-3.8c0.3-0.2,0.6-0.3,0.9-0.4v4.1c0,0.7-0.6,1.3-1.3,1.3H32.7z M51.7,48h-3.9       c-4.3,0-8.6-0.8-12.1-2.1c0.6-2,3-3.5,5.8-3.5l9,0.5l8-0.5c2.8,0,5.1,1.4,5.8,3.4C60.6,47.2,56.2,48,51.7,48z M67.2,34.8h-5.8       c-0.7,0-1.3-0.5-1.3-1.1v-4c0.1,0,0.1,0,0.2,0.1l7.3,4.1l0.8,0.4C68.1,34.6,67.7,34.8,67.2,34.8z"/><path fill="#000000" d="M24.9,64.7c0.4,0.4,0.5,1,0.1,1.4l-8.1,9.4c-0.2,0.2-0.5,0.3-0.8,0.3c-0.2,0-0.5-0.1-0.7-0.2       c-0.4-0.4-0.5-1-0.1-1.4l8.1-9.4C23.8,64.4,24.4,64.3,24.9,64.7z"/><path fill="#000000" d="M17,54.5c0.3,0.5,0.1,1.1-0.3,1.4L6,62.5c-0.2,0.1-0.3,0.2-0.5,0.2c-0.3,0-0.7-0.2-0.8-0.5       c-0.3-0.5-0.2-1.1,0.3-1.4l10.7-6.6C16,53.8,16.7,54,17,54.5z"/></g></g></g></g></g><text x="0" y="115" fill="#000000" font-size="5px" font-weight="bold" font-family="'Helvetica Neue', Helvetica, Arial-Unicode, Arial, Sans-serif">Created by Eðvarð Atli Birgisson</text><text x="0" y="120" fill="#000000" font-size="5px" font-weight="bold" font-family="'Helvetica Neue', Helvetica, Arial-Unicode, Arial, Sans-serif">from the Noun Project</text></svg>