<svg xmlns="http://www.w3.org/2000/svg" xmlns:xlink="http://www.w3.org/1999/xlink" version="1.1" x="0px" y="0px" viewBox="0 0 100 125" enable-background="new 0 0 100 100" xml:space="preserve"><g><g><path d="M62.532,72.603c-0.303,0.466-0.81,0.721-1.327,0.721c-0.295,0-0.593-0.082-0.859-0.255l-10.59-6.87l-10.59,6.87    c-0.266,0.172-0.564,0.255-0.859,0.255c-0.518,0-1.025-0.254-1.327-0.721c-0.475-0.732-0.267-1.711,0.466-2.186l10.73-6.96V50.667    c0-0.873,0.708-1.581,1.581-1.581c0.873,0,1.581,0.708,1.581,1.581v12.789l10.73,6.96C62.799,70.892,63.007,71.871,62.532,72.603z     M86.582,67.259L86.582,67.259c1.595-7.635-2.048-7.891-2.048-7.891s-0.549-1.057-1.997-1.856    c-0.97-0.574-2.319-1.021-4.101-0.866c-0.577,0.027-1.122,0.139-1.633,0.311l0,0l-0.001,0c-0.655,0.221-1.254,0.544-1.796,0.921    c-0.666,0.422-1.295,0.939-1.849,1.528c-0.878,0.897-1.66,2.057-1.999,3.505c-0.322,1.23-0.313,2.559,0.169,3.91    c-0.655-0.062-1.428,0.318-0.7,2.891c0.532,1.88,1.027,2.407,1.402,2.437c0.418,2.702,1.902,6.211,6.588,6.57    c4.613-0.18,6.044-3.607,6.517-6.267c0.382,0.26,1.018,0.124,1.716-2.345C87.418,68.101,87.072,67.428,86.582,67.259z     M78.82,92.032c6.14,0,11.699-2.486,15.726-6.505c-0.09-1.737-0.678-3.943-2.979-4.528c-3.946-1.004-7.153-3.261-7.153-3.261    l-2.502,7.912l-0.471,1.49l-0.007-0.02l-0.411,1.262l-1.319-3.742c3.336-4.654-0.884-4.473-0.884-4.473s-4.22-0.181-0.884,4.473    l-1.331,3.772l-0.407-1.275l-2.972-9.398c0,0-3.207,2.257-7.153,3.261c-2.302,0.585-2.889,2.791-2.979,4.528    C67.121,89.546,72.68,92.032,78.82,92.032z M28.942,67.259L28.942,67.259c1.595-7.635-2.048-7.891-2.048-7.891    s-0.549-1.057-1.997-1.856c-0.97-0.574-2.319-1.021-4.101-0.866c-0.577,0.027-1.122,0.139-1.633,0.311l0,0l-0.001,0    c-0.655,0.221-1.254,0.544-1.796,0.921c-0.666,0.422-1.295,0.939-1.849,1.528c-0.878,0.897-1.66,2.057-1.999,3.505    c-0.322,1.23-0.313,2.559,0.169,3.91c-0.655-0.062-1.428,0.318-0.7,2.891c0.532,1.88,1.027,2.407,1.402,2.437    c0.418,2.702,1.902,6.211,6.588,6.57c4.613-0.18,6.044-3.607,6.517-6.267c0.382,0.26,1.018,0.124,1.716-2.345    C29.778,68.101,29.432,67.428,28.942,67.259z M21.18,92.032c6.14,0,11.699-2.486,15.726-6.505    c-0.09-1.737-0.678-3.943-2.979-4.528c-3.946-1.004-7.153-3.261-7.153-3.261l-2.502,7.912l-0.471,1.49l-0.007-0.02l-0.411,1.262    l-1.319-3.742c3.336-4.654-0.884-4.473-0.884-4.473s-4.22-0.181-0.884,4.473l-1.331,3.772l-0.407-1.275l-2.972-9.398    c0,0-3.207,2.257-7.153,3.261c-2.302,0.585-2.889,2.791-2.979,4.528C9.481,89.546,15.04,92.032,21.18,92.032z M57.518,18.612    L57.518,18.612c1.595-7.635-2.048-7.891-2.048-7.891s-0.549-1.057-1.997-1.856c-0.97-0.574-2.319-1.021-4.101-0.866    c-0.577,0.027-1.122,0.139-1.633,0.311l0,0l-0.001,0c-0.655,0.221-1.254,0.544-1.796,0.921c-0.666,0.422-1.295,0.939-1.849,1.528    c-0.878,0.897-1.66,2.057-1.999,3.505c-0.322,1.23-0.313,2.559,0.169,3.91c-0.655-0.062-1.428,0.318-0.7,2.891    c0.532,1.88,1.027,2.407,1.402,2.437c0.418,2.702,1.902,6.211,6.588,6.57c4.613-0.18,6.044-3.607,6.517-6.267    c0.382,0.26,1.018,0.124,1.716-2.345C58.354,19.454,58.008,18.782,57.518,18.612z M49.756,43.385    c6.14,0,11.699-2.486,15.726-6.505c-0.09-1.737-0.678-3.943-2.979-4.528c-3.946-1.004-7.153-3.261-7.153-3.261l-2.502,7.912    l-0.471,1.49l-0.007-0.02l-0.411,1.262l-1.319-3.742c3.336-4.654-0.884-4.473-0.884-4.473s-4.22-0.181-0.884,4.473l-1.331,3.772    l-0.407-1.275l-2.972-9.398c0,0-3.207,2.257-7.153,3.261c-2.302,0.585-2.889,2.791-2.979,4.528    C38.058,40.9,43.617,43.385,49.756,43.385z"/></g></g><text x="0" y="115" fill="#000000" font-size="5px" font-weight="bold" font-family="'Helvetica Neue', Helvetica, Arial-Unicode, Arial, Sans-serif">Created by Gregor Črešnar</text><text x="0" y="120" fill="#000000" font-size="5px" font-weight="bold" font-family="'Helvetica Neue', Helvetica, Arial-Unicode, Arial, Sans-serif">from the Noun Project</text></svg>