<svg xmlns="http://www.w3.org/2000/svg" xmlns:xlink="http://www.w3.org/1999/xlink" version="1.1" x="0px" y="0px" viewBox="0 0 90 112.5" enable-background="new 0 0 90 90" xml:space="preserve"><path d="M81.6 59.6c0-0.1 0-0.1 0.1-0.2 1.6-4.2 2.6-8.8 2.7-13.6 0 0 0 0 0 0l0 0c0-0.3 0-0.6 0-0.9 0-22.1-17.9-40-40-40s-40 17.9-40 40c0 4.6 0.8 9 2.2 13.1l0 0c0 0 0 0 0 0C12 73.7 26.9 85 44.4 85c16.1 0 30-9.6 36.4-23.3 0-0.1 0.1-0.1 0.1-0.2C81.1 60.9 81.4 60.3 81.6 59.6zM77.9 45.9v-1.1h-1.1v1.1h-2.5v-1.1h-1.1v1.1h-2.5v-1.1h-1.1v1.1h-2.9v2.9H48.4v-4.7H56 57V43v-2.6c0.7-0.2 1.3-0.7 1.6-1.4h17.9c0.3 1.2 1.3 2.2 2.5 2.4 0.1 1.2 0.2 2.3 0.2 3.5 0 0.3 0 0.6 0 0.9H77.9zM44.4 10.1c15.9 0 29.3 10.7 33.5 25.2 -0.1 0.1-0.2 0.1-0.3 0.2l-6.9-6.7v-0.3h-0.3l0 0 0 0H48.8V22h-5.4v6.5h-2.5V22h-5.4v6.5h-2.5V22h-5.4v6.5h-5.1c-0.2-1-1.2-1.8-2.3-1.8 -1.3 0-2.3 1.1-2.3 2.4 0 1.1 0.8 2 1.8 2.3v2.2 1.1h1.1 18.8c0.2 1 1.2 1.8 2.3 1.8 1.3 0 2.3-1.1 2.3-2.4s-1-2.4-2.3-2.4c-1.1 0-2 0.8-2.3 1.8H20.7v-2.2c0.9-0.2 1.5-0.9 1.7-1.7h31.4V32h13.3v-2.4H70l7 6.7c-0.3 0.5-0.5 1-0.5 1.6H58.8c-0.1-1.2-1.1-2.2-2.3-2.2 -1.3 0-2.3 1.1-2.3 2.4 0 1.1 0.8 2 1.8 2.3V43H38.3c-0.3-3.6-3.3-6.5-7-6.5 -3.7 0-6.7 2.9-7 6.5h-1.8v-1.4 -0.4 -0.7h-3.6v-1.8h-8.6v4h8.6v-1.1h2.5V43v1.1 1.8h-2.5v-1.1h-8.6v4h8.6V47h3.6v-1.1 -1.8h1.8c0.3 3.6 3.3 6.5 7 6.5 3.7 0 6.7-2.9 7-6.5h9v4.7 1.1h1.1 18.3v4.3H44.1C44 52.4 42.5 51 40.7 51c-1.8 0-3.3 1.4-3.4 3.2H23.9c-0.2-1-1.2-1.8-2.3-1.8 -1.3 0-2.3 1.1-2.3 2.4s1 2.4 2.3 2.4c1.1 0 2-0.8 2.3-1.8h13.5c0.4 1.5 1.7 2.5 3.3 2.5 1.6 0 2.9-1.1 3.3-2.5h7v2h2.5v-2h13.3v4.3h-54c-2.1-4.5-3.2-9.4-3.2-14.7C9.5 25.7 25.1 10.1 44.4 10.1zM44.4 79.9c-13.6 0-25.4-7.8-31.1-19.2h29.4v6.4H48v-6.4h2.2v6.4h5.4v-6.4h2.2v6.4h5.4v-6.4h3.6v2.9h2.9v1.1h1.1v-1.1h2.5v1C66.9 73.8 56.4 79.9 44.4 79.9z"/><text x="0" y="105" fill="#000000" font-size="5px" font-weight="bold" font-family="'Helvetica Neue', Helvetica, Arial-Unicode, Arial, Sans-serif">Created by Chris Keithley</text><text x="0" y="110" fill="#000000" font-size="5px" font-weight="bold" font-family="'Helvetica Neue', Helvetica, Arial-Unicode, Arial, Sans-serif">from the Noun Project</text></svg>