<svg xmlns="http://www.w3.org/2000/svg" xmlns:xlink="http://www.w3.org/1999/xlink" version="1.1" x="0px" y="0px" viewBox="0 0 39.396 125" enable-background="new 0 0 39.396 100" xml:space="preserve"><circle cx="31.674" cy="7.723" r="7.723"/><path d="M36.916,76.206c0.356-0.505-4.828-14.998-4.828-14.998c-0.273-0.126-0.538-0.269-0.783-0.448  c-1.025,0.929-2.289,1.622-3.741,2.042l-1.413,3.565l4.344,10.858l0.86-0.146l1.496,20.565c0.059,1.108,0.722,2.121,2.459,2.028  c1.737-0.093,2.313-1.182,2.253-2.29L36.916,76.206z"/><path d="M34.996,29.452l0.472-4.059c0.413-3.289-1.14-5.763-3.725-7.092c-1.269-0.985-2.894-1.673-4.864-1.901  c-3.559-0.411-6.856,0.703-8.931,2.722c0.046-0.964-0.109-1.895-0.436-2.75c0.595-0.878,0.997-1.906,1.127-3.032l0.12-1.04  c0.431-3.734-2.246-7.111-5.981-7.542c-3.734-0.431-7.111,2.246-7.542,5.981l-0.12,1.04c-0.13,1.127,0.027,2.219,0.406,3.209  c-0.595,0.878-1.467,0.196-2.514,3.337c-0.914,2.743-4.45,26.963-2.356,29.581c2.348,2.935,3.077,2.45,6.811,2.881  s6.871-0.166,7.302-3.9l0.308-2.665l1.776,0.174l-0.994,8.547c-0.278,2.21,0.335,4.065,1.547,5.455l-4.668,16.368L2.571,96.263  c-0.551,1.055-0.629,2.424,1.144,3.35c1.772,0.927,2.974,0.029,3.525-1.025l11.488-20.302c0.357-0.163,0.93,0.559,1.035,0.248  l1.309-4.974l4.949-12.547c2.363-0.419,4.355-1.695,5.362-3.802c0.283,1.39,1.388,2.394,2.639,2.304  c1.38-0.099,2.405-1.486,2.289-3.098L34.996,29.452z M15.824,37.719l1.786-15.467c0.908-1.077,2.076-2.004,3.397-2.685  c-0.898,0.972-1.516,2.234-1.712,3.793l-1.69,14.533L15.824,37.719z"/><text x="0" y="115" fill="#000000" font-size="5px" font-weight="bold" font-family="'Helvetica Neue', Helvetica, Arial-Unicode, Arial, Sans-serif">Created by Claire Jones</text><text x="0" y="120" fill="#000000" font-size="5px" font-weight="bold" font-family="'Helvetica Neue', Helvetica, Arial-Unicode, Arial, Sans-serif">from the Noun Project</text></svg>