<?xml version="1.0" encoding="utf-8"?>
<!-- Generator: Adobe Illustrator 19.1.0, SVG Export Plug-In . SVG Version: 6.00 Build 0)  -->
<svg version="1.1" id="圖層_1" xmlns="http://www.w3.org/2000/svg" xmlns:xlink="http://www.w3.org/1999/xlink" x="0px" y="0px"
	 viewBox="32 -42 80 100" style="enable-background:new 32 -42 80 100;" xml:space="preserve">
<style type="text/css">
	.st0{font-family:'LiHeiPro';}
	.st1{font-size:19.4245px;}
</style>
<path d="M104.2-25.5L104.2-25.5c0,1.9-2.9,4.9-2.9,4.9l-14.5,8L82,23l-3.9,1.8l-2-26.6l-2.1-3.9L56.9,3.7l-3.9,13.9l-0.9,0.6L50,5
	l-1.1-0.3l-0.3-0.1l0.1-0.4l0.6-1.3L41.8-7.5l0.9-0.4l11.8,5.5l17.1-9.5l-1.2-4.2L54-34.7l3.6-2.3l26.7,18.3l14.6-8
	C98.8-26.9,104.2-28,104.2-25.5z"/>
<text transform="matrix(0.9267 0 0 1 37.6831 51.7778)" class="st0 st1">海外成長</text>
</svg>
