<?xml version="1.0" encoding="utf-8"?>
<!-- Generator: Adobe Illustrator 19.1.0, SVG Export Plug-In . SVG Version: 6.00 Build 0)  -->
<svg version="1.1" id="圖層_1" xmlns="http://www.w3.org/2000/svg" xmlns:xlink="http://www.w3.org/1999/xlink" x="0px" y="0px"
	 viewBox="32 -42 80 100" style="enable-background:new 32 -42 80 100;" xml:space="preserve">
<style type="text/css">
	.st0{font-family:'LiHeiPro';}
	.st1{font-size:20px;}
</style>
<path d="M86.2-34.4c0-3.2-2.4-5.8-5.5-5.8H63.3c-3.1,0-5.5,2.6-5.5,5.8v8h-4v48.8h36.3v-48.8h-4L86.2-34.4L86.2-34.4z M62.2-34.4
	c0-0.7,0.5-1.3,1.2-1.3h17.3c0.7,0,1.2,0.6,1.2,1.3v8H62.2V-34.4L62.2-34.4z"/>
<path d="M37.6-21.4v38.9c0,2.7,2.1,5,4.7,5h6.8v-48.8h-6.8C39.8-26.4,37.6-24.1,37.6-21.4z"/>
<path d="M101.6-26.4h-6.8v48.8h6.8c2.6,0,4.7-2.2,4.7-5v-38.9C106.4-24.1,104.2-26.4,101.6-26.4z"/>
<text transform="matrix(1 0 0 1 32.1401 54.2595)" class="st0 st1">其他產業</text>
</svg>
