<?xml version="1.0" encoding="utf-8"?>
<!-- Generator: Adobe Illustrator 19.1.0, SVG Export Plug-In . SVG Version: 6.00 Build 0)  -->
<svg version="1.1" id="圖層_1" xmlns="http://www.w3.org/2000/svg" xmlns:xlink="http://www.w3.org/1999/xlink" x="0px" y="0px"
	 viewBox="32 -42 80 100" style="enable-background:new 32 -42 80 100;" xml:space="preserve">
<style type="text/css">
	.st0{font-family:'LiHeiPro';}
	.st1{font-size:24px;}
</style>
<path d="M69.5-22.2L69.5-22.2c-5.8-0.1-5-8.1-5-8.1c0.2-5.4,4.6-5.3,5-5.3c0.4,0,4.8-0.1,5,5.3C74.6-30.3,75.4-22.3,69.5-22.2
	L69.5-22.2L69.5-22.2L69.5-22.2z M74.1,32.8l-3.9-21.4c-0.1-0.4-0.3-0.6-0.7-0.6c-0.3,0-0.7,0.2-0.7,0.6l-3.9,21.4
	c-0.2,1.1-1.2,1.8-2.2,1.6c-1-0.2-1.7-1.1-1.7-2.1L62.4,4l-8.9-7.9c-1.6-1.4-1.7-3.7-0.3-5.4l7.5-8.3c0.2-0.2,0.4-0.5,0.7-0.6
	c2.1-1.5,4.4-2.5,4.4-2.5l2,6.6l1.2-3.5c-2.1-3.1,0.2-3.2,0.6-3.2l0,0c0.3,0,2.7,0.1,0.6,3.2l1.2,3.5l2-6.6c0,0,1.8,0.8,3.7,2.1
	c0.3,0.2,0.6,0.5,0.9,0.7l6.2,5.5l7.2-7.4c0.9-0.8,2.3-0.7,3.1,0.2c0.6,0.7,0.4,1.9-0.2,2.7l-7.6,9.2c-1.4,1.6-3.8,1.8-5.4,0.5
	l-3.4-2.9L76.5,4L78,32.3c0.1,1-0.7,1.9-1.7,2.1C75.3,34.6,74.3,33.8,74.1,32.8z M62.6-1.6l-0.8-8.2l-3.7,3.5L62.6-1.6z M80.2-26.4
	c-2.9-3.4-2.7-8.6,0.3-11.8c3.3-3.4,8.6-3.4,11.8,0c3.2,3.4,3.3,8.8,0,12.2c-2.7,2.8-7,3.2-10.1,1.3l0,0c-1.2,1-2.6,1.2-3.5,1
	c-0.3-0.1-0.3-0.5-0.1-0.6c0.9-0.5,1.4-1.3,1.7-2L80.2-26.4z M80.1-32.1c0,3.7,2.8,6.6,6.3,6.6s6.3-2.9,6.3-6.6s-2.8-6.6-6.3-6.6
	S80.1-35.7,80.1-32.1z M86.5-31.2c0.5,0,0.9-0.4,0.9-0.9S87.1-33,86.5-33c-0.6,0-0.9,0.4-0.9,0.9C85.6-31.5,85.9-31.2,86.5-31.2z
	 M89.6-31.2c0.5,0,0.9-0.4,0.9-0.9S90.2-33,89.6-33c-0.6,0-0.9,0.4-0.9,0.9C88.7-31.5,89.1-31.2,89.6-31.2z M83.3-31.2
	c0.5,0,0.9-0.4,0.9-0.9S83.9-33,83.3-33c-0.6,0-0.9,0.4-0.9,0.9C82.4-31.5,82.8-31.2,83.3-31.2z"/>
<text transform="matrix(1 0 0 1 38.5293 55.1201)" class="st0 st1">顧問業</text>
</svg>
