<?xml version="1.0" encoding="utf-8"?>
<!-- Generator: Adobe Illustrator 19.1.0, SVG Export Plug-In . SVG Version: 6.00 Build 0)  -->
<svg version="1.1" id="圖層_1" xmlns="http://www.w3.org/2000/svg" xmlns:xlink="http://www.w3.org/1999/xlink" x="0px" y="0px"
	 viewBox="32 -42 80 100" style="enable-background:new 32 -42 80 100;" xml:space="preserve">
<style type="text/css">
	.st0{font-family:'LiHeiPro';}
	.st1{font-size:24px;}
</style>
<g>
	<polygon points="77.6,-30.4 81.2,-40.7 56.8,-40.7 59.5,-30.4 	"/>
	<path d="M77.4-25.4L77.4-25.4l-17.7,0.1l-1.5,1.2C48.1-17.8,41-3.7,41,7c0,14.2,12.5,25.7,27.9,25.7S96.8,21.2,96.8,7
		C96.8-4.5,88.6-19.8,77.4-25.4z M78.3,0.2V4h-5.7L72,5.1V7h6.3v3.7H72v5.5h-6.1v-5.5h-6.3V7h6.3V5.1L65.3,4h-5.7V0.2h3.8l-6.1-12.4
		h6.5l5.3,12.4l5.1-12.4h6.5L74.5,0.2H78.3z"/>
</g>
<text transform="matrix(1 0 0 1 35.383 54.3146)" class="st0 st1">金融業</text>
</svg>
