<?xml version="1.0" encoding="utf-8"?>
<!-- Generator: Adobe Illustrator 19.1.0, SVG Export Plug-In . SVG Version: 6.00 Build 0)  -->
<svg version="1.1" id="圖層_1" xmlns="http://www.w3.org/2000/svg" xmlns:xlink="http://www.w3.org/1999/xlink" x="0px" y="0px"
	 viewBox="248 -312 512 640" style="enable-background:new 248 -312 512 640;" xml:space="preserve">
<style type="text/css">
	.st0{font-family:'AdobeMingStd-Light-B5pc-H';}
	.st1{font-size:100.0819px;}
</style>
<g>
	<path d="M635-305.4H356.5c-22.6,0-41,18.4-41,41v426c0,22.6,18.4,41,41,41H635c22.6,0,41-18.4,41-41v-426
		C676-287,657.7-305.4,635-305.4z M659.7,161.6c0,13.6-11,24.6-24.6,24.6H356.5c-13.6,0-24.6-11-24.6-24.6v-426
		c0-13.6,11-24.6,24.6-24.6H635c13.6,0,24.6,11,24.6,24.6V161.6z"/>
	<path d="M364.7-141.5h262.2v-114.7H364.7V-141.5z M381.1-239.9h229.4v81.9H381.1V-239.9z"/>
	<path d="M430.3-108.8h-65.5v65.5h65.5V-108.8z M413.9-59.6h-32.8v-32.8h32.8V-59.6z"/>
	<path d="M463-43.2h65.5v-65.5H463L463-43.2L463-43.2z M479.4-92.4h32.8v32.8h-32.8L479.4-92.4L479.4-92.4z"/>
	<path d="M561.2-43.2h65.5v-65.5h-65.5V-43.2z M577.7-92.4h32.8v32.8h-32.8V-92.4z"/>
	<path d="M430.3-10.4h-65.5v65.5h65.5V-10.4z M413.9,38.7h-32.8V5.9h32.8V38.7z"/>
	<path d="M463,55.1h65.5v-65.5H463L463,55.1L463,55.1z M479.4,6h32.8v32.8h-32.8L479.4,6L479.4,6z"/>
	<path d="M561.2,153.4h65.5V-10.4h-65.5V153.4z M577.7,6h32.8v131.1h-32.8V6z"/>
	<path d="M364.7,153.4h163.9V87.9H364.7V153.4z M381.1,104.3h131.1v32.8H381.1V104.3z"/>
	<rect x="487.6" y="-207.1" width="16.4" height="16.4"/>
	<rect x="520.4" y="-207.1" width="16.4" height="16.4"/>
	<rect x="454.8" y="-207.1" width="16.4" height="16.4"/>
</g>
<text transform="matrix(0.9034 0 0 1 359.0503 301.2622)" class="st0 st1">金融業</text>
</svg>
