<?xml version="1.0" encoding="utf-8"?>
<!-- Generator: Adobe Illustrator 19.1.0, SVG Export Plug-In . SVG Version: 6.00 Build 0)  -->
<svg version="1.1" id="圖層_1" xmlns="http://www.w3.org/2000/svg" xmlns:xlink="http://www.w3.org/1999/xlink" x="0px" y="0px"
	 viewBox="42 -55 100 125" style="enable-background:new 42 -55 100 125;" xml:space="preserve">
<style type="text/css">
	.st0{font-family:'LiHeiPro';}
	.st1{font-size:24px;}
</style>
<g>
	<path d="M83.2-43.8C69.2-40.6,69-25.7,69-22.4c0,8.7-3.6,13.9-5.1,15.8c-1.6,2.1-2.1,3-1.7,4.2c0.3,1.2,3.9,0.9,4.1,1.9
		c0.1,0.7-0.7,1.6-0.4,2.6C66,2.9,67.3,3.5,67.2,4c-0.1,0.5-1,1.9-0.4,2.7C69.4,9.8,68.5,10,68,13c-1.1,7.1,9.7,4.6,9.7,4.6
		c12.7-2.9,13.7,17.5,13.7,17.5h1.9c0,0-1.1-11.7-5.6-16.3c-4.1-4.2-9.2-3.1-10.7-2.9c-9.2,1.5-7.2-2.7-7-3.9c0.3-2.6,0.5-3.8-1.4-6
		c-0.5-0.6,0.5-1.8,0.2-2.7s-1.5-1-1.5-1.8c0-1.1,0.8-2.3,0.4-3.1c-0.7-1-3.2-1-3.4-2.1c-0.2-1.5,6.4-6.6,6.7-18.7
		c0.2-9.3,3.2-16.9,12.5-19.4c8.1-2.3,20-0.7,24.7,1.9c6.7,3.7,10.4,8.5,11.4,13.6c2,9.9-3,20-3.8,21.4c-1.2,2.2-3.3,5.9-4.3,9.1
		c-2.3,7.7-4.3,8-7.4,8.4c-6,0.7-6.6-6.3-6.6-7.4h1.1c0.6,0,1.1-0.5,1.1-1.1V3.9c0-0.6-0.5-1.1-1.1-1.1h-3.9c-0.6,0-1.1,0.5-1.1,1.1
		V4c0,0.6,0.5,1.1,1.1,1.1h1c1.1,9.7,6,9.7,9.2,9.3c3.2-0.4,6.2-3.6,7.1-6.8c0.5-1.8,2.1-6.9,4.7-10.9c1.5-2.3,4.4-8.4,4.9-14.2
		C124.6-47.8,92.1-45.8,83.2-43.8z"/>
	<path d="M92.2,2.5h8.7c0.6,0,1.1-0.5,1.1-1.1V1.3c0-0.6-0.5-1.1-1.1-1.1h-8.7c-0.6,0-1.1,0.5-1.1,1.1v0.1C91.1,2,91.6,2.5,92.2,2.5
		z"/>
	<path d="M91.8-0.2h9.5c0.6,0,1.1-0.5,1.1-1.1v-0.1c0-0.6-0.5-1.1-1.1-1.1h-9.5c-0.6,0-1.1,0.5-1.1,1.1v0.1
		C90.7-0.6,91.2-0.2,91.8-0.2z"/>
	<path d="M92.1-5.1h-0.3c-0.6,0-1.1,0.5-1.1,1.1v0.1c0,0.6,0.5,1.1,1.1,1.1h9.6c0.6,0,1.1-0.5,1.1-1.1V-4c0-0.6-0.5-1.1-1.1-1.1
		c-0.2-0.9-0.5-2.7-0.5-4.1c0-1.2,0.1-1.7,0.9-2.6c1.7-2,6.8-6.1,6.8-12.1c0-6.5-5-11.7-11.3-12.2v0c0,0-0.2,0-0.4,0
		c-0.2,0-0.5,0-0.5,0v0v0c-6.3,0.5-11.3,5.7-11.3,12.2c0,6,5.1,10.1,6.8,12.1c0.8,0.9,0.9,1.4,0.9,2.6C92.6-7.8,92.3-6,92.1-5.1z"/>
</g>
<text transform="matrix(1 0 0 1 46.8483 60.291)" class="st0 st1">生活啟發</text>
</svg>
