<?xml version="1.0" encoding="utf-8"?>
<!-- Generator: Adobe Illustrator 19.1.0, SVG Export Plug-In . SVG Version: 6.00 Build 0)  -->
<svg version="1.1" id="圖層_1" xmlns="http://www.w3.org/2000/svg" xmlns:xlink="http://www.w3.org/1999/xlink" x="0px" y="0px"
	 viewBox="32 -42 80 100" style="enable-background:new 32 -42 80 100;" xml:space="preserve">
<style type="text/css">
	.st0{font-family:'LiHeiPro';}
	.st1{font-size:19.4245px;}
	.st2{fill:#010101;}
</style>
<text transform="matrix(0.9267 0 0 1 36.7163 54.4954)" class="st0 st1">公關廣告</text>
<path class="st2" d="M79.2-29.4c-1.9,0-2.1,1.7-3.1,2.9c-4.1,6.1-8.2,13.6-18.9,13.6H41c-3,0-6.8,1.5-6.8,9.3c0,10.4,7,10,7,10l0,0
	h2.4l9.1,17c0.9,1.2,2.4,2.3,4,1.4l5.4-3.2L54.3,6.4h2.9c9.9,0,13.7,6.2,18,11.6l0,0c0,0,0.1,0.1,0.1,0.2c0.2,0.3,0.3,0.4,0.5,0.7
	c1,1.2,2.1,3.4,3.6,3.4c1.5-0.3,2-1.3,2-2.6v-46.3C81.3-28.1,80.6-29.4,79.2-29.4z M48.3,0.7h-7c-0.6,0-1.2-0.7-1.2-1.4
	S40.7-2,41.3-2h7c0.6,0,1.1,0.6,1.1,1.3S49,0.7,48.3,0.7z M48.3-5.1h-7c-0.6,0-1.2-0.7-1.2-1.4s0.6-1.3,1.2-1.3h7
	c0.6,0,1.1,0.6,1.1,1.3C49.5-5.7,49-5.1,48.3-5.1z M75.5,9.8C70,3.4,66.6,1.9,58.3,1.9V-8.5c8.3,0,11.7-1.7,17.2-8.3V9.8z"/>
<path class="st2" d="M96.3-10.8c-0.8-1.1-2.2-1.1-3.1,0c-0.8,1.1-0.8,2.9,0,4.1c1.5,2,2.4,4.9,2.4,7.8s-0.9,5.6-2.4,7.8
	c-0.8,1.1-0.8,2.9,0,4.1c0.4,0.5,1,0.8,1.5,0.8c0.6,0,1.1-0.3,1.5-0.8C98.7,9.6,100,5.5,100,1C99.9-3.5,98.6-7.8,96.3-10.8z"/>
<path class="st2" d="M104-17.7c-0.9-1.1-2.3-1.1-3.1,0c-0.9,1.1-0.9,2.8,0,3.9c3,3.7,4.6,8.6,4.6,13.9s-1.6,10.2-4.6,13.9
	c-0.9,1.1-0.9,2.8,0,3.9c0.4,0.5,1,0.8,1.5,0.8s1.1-0.3,1.5-0.8c3.8-4.8,5.8-11.1,5.8-17.8S107.8-13,104-17.7z"/>
</svg>
