<?xml version="1.0" encoding="utf-8"?>
<!-- Generator: Adobe Illustrator 19.1.0, SVG Export Plug-In . SVG Version: 6.00 Build 0)  -->
<svg version="1.1" id="圖層_1" xmlns="http://www.w3.org/2000/svg" xmlns:xlink="http://www.w3.org/1999/xlink" x="0px" y="0px"
	 viewBox="42 -55 100 125" style="enable-background:new 42 -55 100 125;" xml:space="preserve">
<style type="text/css">
	.st0{font-family:'LiHeiPro';}
	.st1{font-size:24px;}
</style>
<g>
	<path d="M107.6-43.4c-8.9-0.1-16.2,6.8-16.3,15.2c-0.1,8.4,7.2,15.3,16.2,15.3s16.2-6.8,16.3-15.2
		C123.7-36.6,116.5-43.4,107.6-43.4z M107.6-41c2.9,0,5.2,2.2,5.2,4.9c0,2.7-2.4,4.9-5.2,4.9c-2.9,0-5.2-2.2-5.2-4.9
		C102.3-38.8,104.7-41,107.6-41z M109.5-28.2c0,1.1-0.9,1.9-2.1,1.9c-1.1,0-2.1-0.8-2.1-1.9c0-1.1,0.9-1.9,2.1-1.9
		C108.6-30.1,109.6-29.2,109.5-28.2z M93.9-28.2c0-2.7,2.4-4.9,5.2-4.9c2.9,0,5.2,2.2,5.2,4.9s-2.4,4.9-5.2,4.9S93.9-25.5,93.9-28.2
		z M107.4-15.4c-2.9,0-5.2-2.2-5.2-4.9s2.4-4.9,5.2-4.9c2.9,0,5.2,2.2,5.2,4.9C112.6-17.6,110.3-15.4,107.4-15.4z M115.8-23.2
		c-2.9,0-5.2-2.2-5.2-4.9s2.4-4.9,5.2-4.9s5.2,2.2,5.2,4.9C121.1-25.4,118.7-23.2,115.8-23.2z"/>
	<path d="M76.1-36.6c-7,0-12.6,5.2-12.7,11.8c0,6.6,5.6,11.9,12.5,11.9c7,0.1,12.6-5.2,12.6-11.8C88.6-31.2,83-36.6,76.1-36.6z
		 M76.1-34.7c2.2,0,4,1.7,4,3.9c0,2.1-1.8,3.8-4.1,3.8c-2.2,0-4-1.7-4-3.9C72-33,73.8-34.7,76.1-34.7z M77.6-24.8
		c0,0.8-0.7,1.5-1.6,1.5c-0.9,0-1.6-0.7-1.6-1.5c0-0.8,0.7-1.5,1.6-1.5C76.9-26.2,77.6-25.6,77.6-24.8z M65.4-24.9
		c0-2.1,1.8-3.8,4.1-3.8c2.2,0,4,1.7,4,3.9c0,2.1-1.8,3.8-4.1,3.8C67.2-21,65.4-22.8,65.4-24.9z M75.9-14.8c-2.2,0-4-1.7-4-3.9
		c0-2.1,1.8-3.8,4.1-3.8c2.2,0,4,1.7,4,3.9C80-16.5,78.2-14.8,75.9-14.8z M82.5-20.9c-2.2,0-4-1.7-4-3.9c0-2.1,1.8-3.8,4.1-3.8
		c2.2,0,4,1.7,4,3.9C86.6-22.6,84.7-20.9,82.5-20.9z"/>
</g>
<path d="M123.5-11.4H65.3c-1.3,0-2.4,0.8-2.4,1.9v6.8l-2.2-1.2c-0.1-0.1-0.2-0.1-0.2-0.1c-0.2,0-0.5,0.5-0.7,1.2l-6.1-3.2
	C53.7-6,53.6-6,53.5-6c-1,0-1.8,5.5-1.8,12.3s0.8,12.3,1.8,12.3c0.1,0,0.1,0,0.2-0.1l0,0l6.2-3.2c0.2,0.7,0.4,1.2,0.7,1.2
	c0.1,0,0.1,0,0.2-0.1l0,0l2.3-1.2v6.7c0,1.1,1.1,1.9,2.4,1.9h5.6l-3.3,6c-0.6,1.2-0.2,2.5,1.1,3.1C69,33,69.4,33,69.7,33
	c0.9,0,1.7-0.5,2.1-1.2l4.3-8.1h36.2l4.3,8.1c0.4,0.8,1.3,1.2,2.1,1.2c0.3,0,0.7-0.1,1.1-0.2c1.2-0.5,1.6-1.9,1.1-3.1l-3.3-6h5.6
	c1.3,0,2.4-0.8,2.4-1.9V-9.4C125.8-10.5,124.8-11.4,123.5-11.4z"/>
<text transform="matrix(1 0 0 1 43.6087 60.0649)" class="st0 st1">電影書籍</text>
</svg>
