<?xml version="1.0" encoding="utf-8"?>
<!-- Generator: Adobe Illustrator 19.1.0, SVG Export Plug-In . SVG Version: 6.00 Build 0)  -->
<svg version="1.1" id="圖層_1" xmlns="http://www.w3.org/2000/svg" xmlns:xlink="http://www.w3.org/1999/xlink" x="0px" y="0px"
	 viewBox="32 -42 80 100" style="enable-background:new 32 -42 80 100;" xml:space="preserve">
<style type="text/css">
	.st0{font-family:'LiHeiPro';}
	.st1{font-size:24px;}
</style>
<path d="M91.5,23.1L91.5,23.1H46.7l0,0c-3.6,0-6.5-2.9-6.5-6.4V-35c0-0.7,0.5-1.2,1.3-1.2l0,0h44.8l0,0c0.5,0,1,0.3,1.2,0.8
	c0.1,0.1,0.1,0.3,0.1,0.5l0,0v18.1h9.2c0.8,0,1.3,0.6,1.3,1.2v32.3C98.1,20.3,95.1,23.1,91.5,23.1z M84.9,16.7v-50.4H42.8v50.4l0,0
	l0,0c0,2.1,1.8,3.8,4,3.8h39.5C85.4,19.5,84.9,18.2,84.9,16.7z M95.5-14.3h-7.9v31c0,2.1,1.7,3.8,4,3.8c2.3,0,4-1.7,4-3.8V-14.3z
	 M46.7,14.1c0-0.7,0.5-1.2,1.3-1.2h11.9c0.8,0,1.3,0.6,1.3,1.2c0,0.7-0.5,1.2-1.3,1.2H48C47.3,15.5,46.7,14.8,46.7,14.1z M52.9-6.9
	c-0.5,0.5-1.3,0.5-1.8,0c-0.5-0.5-0.5-1.2,0-1.8l7.8-7.6c0-0.1,0.1-0.1,0.1-0.2c0.2-0.2,0.6-0.3,1-0.3c0.3,0,0.6,0.1,1,0.3
	c0.1,0,0.1,0.1,0.1,0.2l5.5,5.4l2.9-2.8c0-0.1,0.1-0.1,0.1-0.2c0.2-0.2,0.6-0.3,1-0.3c0.3,0,0.6,0.1,1,0.3c0.1,0,0.1,0.1,0.1,0.2
	l5,5c0.5,0.5,0.5,1.2,0,1.8c-0.5,0.5-1.3,0.5-1.8,0l-4.4-4.3l-2.1,2l0.4,0.5c0.5,0.5,0.5,1.2,0,1.8c-0.5,0.5-1.3,0.5-1.8,0l-7.1-6.9
	L52.9-6.9z M67.8-0.2h11.9c0.8,0,1.3,0.6,1.3,1.2s-0.5,1.2-1.3,1.2H67.8c-0.8,0-1.3-0.6-1.3-1.2C66.5,0.5,67-0.2,67.8-0.2z
	 M67.8,6.4h11.9C80.4,6.4,81,7,81,7.7s-0.5,1.2-1.3,1.2H67.8c-0.8,0-1.3-0.6-1.3-1.2S67,6.4,67.8,6.4z M67.8,12.9h11.9
	c0.8,0,1.3,0.6,1.3,1.2c0,0.7-0.5,1.2-1.3,1.2H67.8c-0.8,0-1.3-0.6-1.3-1.2C66.5,13.4,67,12.9,67.8,12.9z M69.1-17.6
	c0,1-0.9,1.9-1.9,1.9c-1.1,0-2-0.8-2-1.9s0.9-1.9,1.9-1.9C68.1-19.5,69.1-18.6,69.1-17.6z M73-24.7H54.6c-0.8,0-1.3-0.6-1.3-1.2
	s0.5-1.2,1.3-1.2H73c0.8,0,1.3,0.6,1.3,1.2S73.8-24.7,73-24.7z M48,6.4H60c0.8,0,1.3,0.6,1.3,1.2S60.7,8.9,60,8.9H48
	c-0.8,0-1.3-0.6-1.3-1.2C46.7,7,47.3,6.4,48,6.4z M61.2,1.2c0,0.7-0.5,1.2-1.3,1.2H48c-0.8,0-1.3-0.6-1.3-1.2S47.3,0,48,0H60
	C60.6-0.2,61.2,0.5,61.2,1.2z"/>
<text transform="matrix(1.0259 0 0 1 33.9036 54.3274)" class="st0 st1">媒體業</text>
</svg>
