<?xml version="1.0" encoding="utf-8"?>
<!-- Generator: Adobe Illustrator 19.1.0, SVG Export Plug-In . SVG Version: 6.00 Build 0)  -->
<svg version="1.1" id="圖層_1" xmlns="http://www.w3.org/2000/svg" xmlns:xlink="http://www.w3.org/1999/xlink" x="0px" y="0px"
	 viewBox="42 -55 100 125" style="enable-background:new 42 -55 100 125;" xml:space="preserve">
<style type="text/css">
	.st0{font-family:'LiHeiPro';}
	.st1{font-size:30px;}
</style>
<g>
	<path d="M60.6-41.1c-2.4,0-4.4,2-4.4,4.4V3.7c0,2.4,2,4.4,4.4,4.4h15l-7.3,11.6c-0.3,0.3-0.2,0.9,0.2,1.2c0.4,0.2,0.9,0.1,1.1-0.3
		l7.7-12.1c0.1-0.1,0.1-0.2,0.1-0.3h13.8v12c0,0.4,0.4,0.8,0.8,0.8c0.4,0,0.8-0.4,0.8-0.8v-12h13.8c0,0.1,0.1,0.2,0.1,0.3l7.7,12.1
		c0.2,0.4,0.8,0.5,1.1,0.3c0.4-0.3,0.5-0.8,0.2-1.2l-7.3-11.6h15.1c2.4,0,4.4-2,4.4-4.4v-40.4c0-2.4-2-4.4-4.4-4.4H60.6L60.6-41.1z
		 M60.6-39.5h62.7c1.5,0,2.8,1.3,2.8,2.8V3.7c0,1.5-1.2,2.8-2.8,2.8H60.6c-1.5,0-2.8-1.2-2.8-2.8v-40.4
		C57.8-38.2,59.1-39.5,60.6-39.5L60.6-39.5z M109.6-35.9c-5.2,0-9.5,4.3-9.5,9.5s4.3,9.6,9.5,9.6c5.3,0,9.5-4.3,9.5-9.6
		S114.8-35.9,109.6-35.9L109.6-35.9z M108.7-34.2C108.8-34.2,108.8-34.2,108.7-34.2C108.8-34.2,108.8-34.2,108.7-34.2v15.7v0.1
		c-4-0.4-7.1-3.8-7.1-7.9C101.6-30.5,104.7-33.8,108.7-34.2L108.7-34.2z M110.4-34.2c3.8,0.4,6.8,3.3,7.1,7.1h-0.1h-7V-34.2
		L110.4-34.2L110.4-34.2z M111.5-25.6h5.9h0.1c-0.2,1.6-0.8,3-1.8,4.2c0,0-0.1,0-0.1-0.1L111.5-25.6L111.5-25.6z M110.4-24.4
		l4.2,4.2l0.1,0.1c-1.2,1-2.6,1.6-4.2,1.7v-0.1v-5.9H110.4z M65.5-23.7c-0.4,0-0.8,0.5-0.7,0.8c0.1,0.4,0.5,0.8,0.9,0.7h17.9
		c0.4,0,0.8-0.4,0.8-0.8s-0.4-0.8-0.8-0.8H65.7C65.6-23.8,65.6-23.8,65.5-23.7C65.6-23.8,65.6-23.8,65.5-23.7L65.5-23.7z M65.6-16
		c-0.4,0-0.8,0.4-0.8,0.8c0,0.4,0.4,0.8,0.8,0.8h30.7c0.4,0,0.8-0.4,0.8-0.8S96.7-16,96.3-16H65.6L65.6-16L65.6-16z M65.4-8.3
		c-0.4,0.1-0.7,0.5-0.7,0.9c0.1,0.4,0.5,0.7,0.9,0.7h52.6c0.4,0,0.8-0.4,0.8-0.8c0-0.4-0.4-0.8-0.8-0.8H65.7
		C65.6-8.3,65.6-8.3,65.4-8.3C65.5-8.3,65.5-8.3,65.4-8.3L65.4-8.3z M65.4-0.6c-0.4,0.1-0.7,0.5-0.6,0.9c0.1,0.4,0.5,0.8,0.9,0.7
		h52.6c0.4,0,0.8-0.4,0.8-0.8s-0.4-0.8-0.8-0.8H65.7C65.6-0.6,65.6-0.6,65.4-0.6C65.5-0.6,65.5-0.6,65.4-0.6L65.4-0.6z"/>
</g>
<text transform="matrix(1 0 0 1 62.1273 65.268)" class="st0 st1">簡報</text>
</svg>
