<?xml version="1.0" encoding="utf-8"?>
<!-- Generator: Adobe Illustrator 19.1.0, SVG Export Plug-In . SVG Version: 6.00 Build 0)  -->
<svg version="1.1" id="圖層_1" xmlns="http://www.w3.org/2000/svg" xmlns:xlink="http://www.w3.org/1999/xlink" x="0px" y="0px"
	 viewBox="42 -55 100 125" style="enable-background:new 42 -55 100 125;" xml:space="preserve">
<style type="text/css">
	.st0{font-family:'LiHeiPro';}
	.st1{font-size:21.4516px;}
</style>
<path d="M87.6-46.9h1.7c0.3,0,0.4-0.3,0.4-0.5S89.6-48,89.3-48h-1.7c-0.3,0-0.4,0.3-0.4,0.5C87.2-47.1,87.4-46.9,87.6-46.9z"/>
<path d="M88.5,39.8c-4.9,0-9-1.3-10.1-2.9c-0.2,0.3-0.3,0.5-0.3,0.9c0,2.1,4.7,3.8,10.4,3.8s10.4-1.7,10.4-3.8
	c0-0.3-0.1-0.5-0.3-0.9C97.7,38.5,93.5,39.8,88.5,39.8z"/>
<path d="M111.4-34.9c-0.1-0.1-0.3-0.1-0.4-0.2c-0.8-0.6-2.2-1.4-4.7-1.9c0,0-9.9-1.9-11-3.6l-1.2,6.6c0,0-0.4,6.1-1.7,12.9
	c0-0.1,0-0.2,0-0.3c0-6.9-1-12.8-2.4-15.1l0.6-0.4l3,4.1l1.3-8.3l-2.4-3.5c-0.2-1.1-1.3-2-2.6-2H87c-1.3,0-2.5,0.9-2.6,2.1l-2.3,3.4
	l1.3,8.3l3-4.2l1.1,0.9c-1.3,2.4-2.1,8-2.1,14.4c-1.5-6.7-2.3-12.4-2.3-12.4l-1.2-6.6c-1.2,1.7-11,3.6-11,3.6
	c-2.5,0.5-3.9,1.3-4.7,2c-0.1,0-0.1,0-0.2,0.1c0,0-7,0.2-2.7,52.9l3.4,2.1l2.2-2.3c0,0,0.9-27.2,2.9-31.3c0.9,3.5,1.4,7.1,0.8,9.7
	C70.7,3.1,71.1,20,71.1,20c1.3,5.2,8.2,7,14.2,7.5v0.1c0,0,0.8,0.1,2.1,0.1v8.8h0.1c0.1,0.2,0.7,0.4,1.3,0.4c0.7,0,1.3-0.2,1.3-0.4
	l0,0l0,0l0,0l0,0v-8.6c2.3,0,3.9-0.1,3.9-0.1c0-0.1,0-0.2,0.1-0.2c5.1-0.6,10.8-2.5,12-7.4c0,0,1-17.4-0.7-24.7
	c-0.5-2.4-0.3-5.5,0.4-8.7c1.9,5.3,2.7,30.8,2.7,30.8l2.2,2.3l3.4-2.1C118.3-34.8,111.4-34.9,111.4-34.9z M92.1-43.5l0.3,0.4
	l1.6,2.3l-1,6.3l-3.9-5.5l-0.4-0.4L92.1-43.5z M83.7-34.6l-1-6.3l1.5-2.2l0.4-0.5l3.2,3l-0.4,0.4L83.7-34.6z M89.2-35.1
	c0,0.2,0,0.4,0,0.7c0,1-0.2,1.8-0.4,1.8s-0.4-0.8-0.4-1.8c0-0.3,0-0.5,0-0.8l-0.9,0.6l1.2-1.9l1.3,2.1L89.2-35.1z M97-21.5l3.1-1.3
	l1,0.7l1.5-1.7l1.5,2.2H97z"/>
<text transform="matrix(1.0022 0 0 1 48.999 61.9946)" class="st0 st1">專業能力</text>
</svg>
