<?xml version="1.0" encoding="utf-8"?>
<!-- Generator: Adobe Illustrator 19.1.0, SVG Export Plug-In . SVG Version: 6.00 Build 0)  -->
<svg version="1.1" id="圖層_1" xmlns:sketch="http://www.bohemiancoding.com/sketch/ns"
	 xmlns="http://www.w3.org/2000/svg" xmlns:xlink="http://www.w3.org/1999/xlink" x="0px" y="0px" viewBox="7 -10.5 30 37.5"
	 style="enable-background:new 7 -10.5 30 37.5;" xml:space="preserve">
<style type="text/css">
	.st0{font-family:'LiHeiPro';}
	.st1{font-size:8.0614px;}
</style>
<title>building_019-tower-company-house-office</title>
<desc>Created with Sketch.</desc>
<g sketch:type="MSPage">
	<g transform="translate(-405.000000, -90.000000)" sketch:type="MSArtboardGroup">
		<g transform="translate(414.000000, 90.000000)" sketch:type="MSLayerGroup">
			<path sketch:type="MSShapeGroup" d="M9,11.6c0-0.2,0.2-0.4,0.5-0.4h2c0.3,0,0.5,0.2,0.5,0.4v4.9h-1V12h-1v4.5H9V11.6z"/>
			<path sketch:type="MSShapeGroup" d="M13.1,11.6c0-0.2,0.2-0.4,0.5-0.4h2c0.3,0,0.5,0.2,0.5,0.4v4.9h-1V12h-1v4.5h-1V11.6z"/>
			<path sketch:type="MSShapeGroup" d="M11.1-8.2c0-0.2,0.2-0.4,0.5-0.4h2c0.3,0,0.5,0.2,0.5,0.4v3.1h-1v-2.7h-1v2.7h-1V-8.2z"/>
			<path sketch:type="MSShapeGroup" d="M9-5.5C9-5.8,9.3-6,9.5-6h6.1c0.3,0,0.5,0.2,0.5,0.4v4.9h-1v-4.5h-5.1v4.5H9V-5.5z"/>
			<path sketch:type="MSShapeGroup" d="M7-1c0-0.2,0.2-0.4,0.5-0.4h10.2c0.3,0,0.5,0.2,0.5,0.4v17.5h-1V-0.6H8v17.1H7V-1z"/>
			<path sketch:type="MSShapeGroup" d="M18.7,16.5c0.3,0,0.5-0.2,0.5-0.4s-0.2-0.4-0.5-0.4H6.5c-0.3,0-0.5,0.2-0.5,0.4
				s0.2,0.4,0.5,0.4H18.7z"/>
			<path sketch:type="MSShapeGroup" d="M11.6,10.2c0.3,0,0.5-0.2,0.5-0.4V8.9c0-0.2-0.2-0.4-0.5-0.4s-0.5,0.2-0.5,0.4v0.9
				C11.1,10,11.3,10.2,11.6,10.2z"/>
			<path sketch:type="MSShapeGroup" d="M9.5,10.2c0.3,0,0.5-0.2,0.5-0.4V8.9c0-0.2-0.2-0.4-0.5-0.4S9,8.6,9,8.9v0.9
				C9,10,9.3,10.2,9.5,10.2z"/>
			<path sketch:type="MSShapeGroup" d="M15.7,10.2c0.3,0,0.5-0.2,0.5-0.4V8.9c0-0.2-0.2-0.4-0.5-0.4s-0.5,0.2-0.5,0.4v0.9
				C15.2,10,15.4,10.2,15.7,10.2z"/>
			<path sketch:type="MSShapeGroup" d="M13.6,10.2c0.3,0,0.5-0.2,0.5-0.4V8.9c0-0.2-0.2-0.4-0.5-0.4s-0.5,0.2-0.5,0.4v0.9
				C13.1,10,13.3,10.2,13.6,10.2z"/>
			<path sketch:type="MSShapeGroup" d="M11.6,7.5c0.3,0,0.5-0.2,0.5-0.4V6.2c0-0.2-0.2-0.4-0.5-0.4s-0.5,0.2-0.5,0.4v0.9
				C11.1,7.3,11.3,7.5,11.6,7.5z"/>
			<path sketch:type="MSShapeGroup" d="M9.5,7.5c0.3,0,0.5-0.2,0.5-0.4V6.2c0-0.2-0.2-0.4-0.5-0.4S9,5.9,9,6.2v0.9
				C9,7.3,9.3,7.5,9.5,7.5z"/>
			<path sketch:type="MSShapeGroup" d="M15.7,7.5c0.3,0,0.5-0.2,0.5-0.4V6.2c0-0.2-0.2-0.4-0.5-0.4s-0.5,0.2-0.5,0.4v0.9
				C15.2,7.3,15.4,7.5,15.7,7.5z"/>
			<path sketch:type="MSShapeGroup" d="M13.6,7.5c0.3,0,0.5-0.2,0.5-0.4V6.2c0-0.2-0.2-0.4-0.5-0.4s-0.5,0.2-0.5,0.4v0.9
				C13.1,7.3,13.3,7.5,13.6,7.5z"/>
			<path sketch:type="MSShapeGroup" d="M11.6,4.8c0.3,0,0.5-0.2,0.5-0.4V3.5c0-0.2-0.2-0.4-0.5-0.4s-0.5,0.2-0.5,0.4v0.9
				C11.1,4.6,11.3,4.8,11.6,4.8z"/>
			<path sketch:type="MSShapeGroup" d="M9.5,4.8c0.3,0,0.5-0.2,0.5-0.4V3.5C10.1,3.2,9.8,3,9.5,3S9,3.2,9,3.5v0.9
				C9,4.6,9.3,4.8,9.5,4.8z"/>
			<path sketch:type="MSShapeGroup" d="M15.7,4.8c0.3,0,0.5-0.2,0.5-0.4V3.5c0-0.2-0.2-0.4-0.5-0.4s-0.5,0.2-0.5,0.4v0.9
				C15.2,4.6,15.4,4.8,15.7,4.8z"/>
			<path sketch:type="MSShapeGroup" d="M13.6,4.8c0.3,0,0.5-0.2,0.5-0.4V3.5c0-0.2-0.2-0.4-0.5-0.4s-0.5,0.2-0.5,0.4v0.9
				C13.1,4.6,13.3,4.8,13.6,4.8z"/>
			<path sketch:type="MSShapeGroup" d="M11.6,2.1c0.3,0,0.5-0.2,0.5-0.4V0.8c0-0.2-0.2-0.4-0.5-0.4s-0.5,0.2-0.5,0.4v0.9
				C11.1,1.9,11.3,2.1,11.6,2.1z"/>
			<path sketch:type="MSShapeGroup" d="M9.5,2.1c0.3,0,0.5-0.2,0.5-0.4V0.8c0-0.2-0.2-0.4-0.5-0.4S9,0.5,9,0.8v0.9
				C9,1.9,9.3,2.1,9.5,2.1z"/>
			<path sketch:type="MSShapeGroup" d="M15.7,2.1c0.3,0,0.5-0.2,0.5-0.4V0.8c0-0.2-0.2-0.4-0.5-0.4s-0.5,0.2-0.5,0.4v0.9
				C15.2,1.9,15.4,2.1,15.7,2.1z"/>
			<path sketch:type="MSShapeGroup" d="M13.6,2.1c0.3,0,0.5-0.2,0.5-0.4V0.8c0-0.2-0.2-0.4-0.5-0.4s-0.5,0.2-0.5,0.4v0.9
				C13.1,1.9,13.3,2.1,13.6,2.1z"/>
			<path sketch:type="MSShapeGroup" d="M11.6-2.4c0.3,0,0.5-0.2,0.5-0.4v-0.9c0-0.2-0.2-0.4-0.5-0.4S11.1-4,11.1-3.7v0.9
				C11.1-2.6,11.3-2.4,11.6-2.4z"/>
			<path sketch:type="MSShapeGroup" d="M13.1-7.8V-10c0-0.2-0.2-0.4-0.5-0.4s-0.5,0.2-0.5,0.4v2.2H13.1z"/>
			<path sketch:type="MSShapeGroup" d="M13.6-2.4c0.3,0,0.5-0.2,0.5-0.4v-0.9c0-0.2-0.2-0.4-0.5-0.4S13.1-4,13.1-3.7v0.9
				C13.1-2.6,13.3-2.4,13.6-2.4z"/>
		</g>
	</g>
</g>
<text transform="matrix(0.9188 0 0 1 7 26.0656)" class="st0 st1">新創產業</text>
</svg>
