<?xml version="1.0" encoding="utf-8"?>
<!-- Generator: Adobe Illustrator 19.1.0, SVG Export Plug-In . SVG Version: 6.00 Build 0)  -->
<svg version="1.1" id="圖層_1" xmlns="http://www.w3.org/2000/svg" xmlns:xlink="http://www.w3.org/1999/xlink" x="0px" y="0px"
	 viewBox="42 -55 100 125" style="enable-background:new 42 -55 100 125;" xml:space="preserve">
<style type="text/css">
	.st0{font-family:'LiHeiPro';}
	.st1{font-size:24px;}
</style>
<g>
	<g>
		<g>
			<g>
				<g>
					<path d="M137.4,7.2c-0.2,0.3-0.5,0.5-0.8,0.5c-0.2,0-0.4-0.1-0.5-0.2l-10.7-6.7c-0.5-0.3-0.6-0.9-0.3-1.4
						c0.3-0.5,0.9-0.6,1.4-0.3l10.7,6.6C137.6,6.1,137.7,6.7,137.4,7.2z"/>
					<path d="M131-19l-18.1-16.5l-1.4-1.3l-0.1-0.1l-1.5-1.3l-1.5-1.4c-2.1-1.9-4.9-3-7.8-3c-2.2,0-4.3,0.6-6.1,1.7
						c-0.4,0.2-0.7,0.5-1,0.7l-0.6,0.5l-1.3,1l-1.4-1l-1.1-0.8c-0.1-0.1-0.3-0.2-0.4-0.2l-0.1-0.1c-1.9-1.2-4-1.8-6.2-1.8
						c-2.2,0-4.4,0.6-6.2,1.8c-0.6,0.4-1.1,0.8-1.6,1.3l-0.1,0.1L72-37.3l-1.1,1L53-18.9c-0.9,0.8-1,2.2-0.4,3.2l8.6,13.4
						C67.1,6.8,77.7,12.5,89,12.5h5.2c11,0,21.1-5.2,27.2-13.8l9.9-14.2C132.1-16.7,131.9-18.1,131-19z M129.7-16.8l-9.9,14.2
						c-5.6,8.1-15.3,13-25.5,13H89c-10.7,0-20.6-5.2-26.1-13.9l-8.6-13.4c-0.1-0.2-0.1-0.5,0.1-0.7l18-17.4l1.1-1l2.3-2.2
						c0,0,0,0,0.1-0.1c0.4-0.4,0.9-0.8,1.3-1.1c1.6-1,3.4-1.5,5.2-1.5c1.8,0,3.6,0.5,5.2,1.5c0.1,0.1,0.3,0.2,0.4,0.3l1.1,0.8
						l2.4,1.7l0.3,0.2l0.8-0.6l1.6-1.3l0.6-0.5c0.3-0.2,0.6-0.4,0.9-0.6c1.5-0.9,3.3-1.4,5-1.4c2.3,0,4.6,0.8,6.4,2.5l1.5,1.4
						l1.5,1.3l0.1,0.1l1.4,1.3l18.1,16.5C129.8-17.3,129.9-17,129.7-16.8z"/>
					<path d="M126.5,20.6c-0.2,0.2-0.4,0.2-0.6,0.2c-0.3,0-0.6-0.1-0.8-0.3l-8.1-9.4c-0.4-0.4-0.3-1,0.1-1.4s1-0.3,1.4,0.1l8.1,9.4
						C127,19.6,127,20.3,126.5,20.6z"/>
					<path d="M111.4,29.5c-0.1,0-0.2,0-0.3,0c-0.4,0-0.8-0.3-1-0.7l-3.6-12.4c-0.2-0.5,0.1-1.1,0.7-1.2c0.5-0.1,1.1,0.2,1.2,0.7
						l3.6,12.5C112.2,28.8,111.9,29.4,111.4,29.5z"/>
					<path d="M93,17.9v12.8c0,0.5-0.5,1-1,1s-1-0.5-1-1V17.9c0-0.6,0.5-1,1-1S93,17.3,93,17.9z"/>
					<path d="M76.7,15.2c0.5,0.2,0.8,0.7,0.7,1.2l-3.6,12.4c-0.1,0.4-0.5,0.7-1,0.7c-0.1,0-0.2,0-0.3,0c-0.5-0.2-0.8-0.7-0.7-1.2
						l3.6-12.4C75.6,15.3,76.2,15,76.7,15.2z"/>
					<path d="M119.5-17.9l-8-4.4l-1.1-0.6l-7.3-4.1c-0.4-0.2-0.8-0.4-1.1-0.5c-0.3-0.1-0.7-0.2-1.1-0.3c-0.8-0.2-1.6-0.2-2.5-0.2
						c-0.2,0-0.4,0-0.6,0c-0.6,0-1.1,0.1-1.7,0.2c-0.4,0.1-0.7,0.2-1.1,0.3c-0.3,0.1-0.7,0.2-1,0.4l0,0c-0.5,0.2-1,0.4-1.5,0.5
						c-0.3,0-0.5,0.1-0.8,0.1c-0.1,0-0.2,0-0.3,0c-0.7,0-1.3-0.2-1.9-0.4L89-27.3c-1.2-0.5-2.7-0.8-4.1-0.8c-0.6,0-1.3,0-1.9,0.2
						c-0.4,0.1-0.7,0.1-1.1,0.2c-0.7,0.2-1.4,0.5-2,0.8l-6.5,3.8l-1.1,0.6l-7.9,4.6c-0.3,0.2-0.4,0.6-0.1,0.9l6,5.7
						c1.2,1.1,2.6,2.1,4.2,2.9c0.5,0.2,1,0.5,1.5,0.7l0,0c3.9,1.7,8.7,2.9,13.7,2.9h3.9c5.2,0,10.3-1.3,14.2-3.1c0-0.1,0,0.1,0,0
						l0,0c0.5-0.2,1-0.5,1.5-0.8c1.2-0.7,2.3-1.4,3.2-2.2l7-6.1C119.9-17.2,119.9-17.7,119.5-17.9z M92.5-24.7c0.1,0,0.2,0,0.3,0
						c0.7-0.1,1.4-0.3,2.1-0.6c1-0.5,2.2-0.7,3.5-0.7c0.7,0,1.5,0.1,2.1,0.2c0.1,0,0.3,0.1,0.5,0.1v4.2c0,0.7-0.6,1.3-1.3,1.3h-5.8
						c-0.7,0-1.3-0.6-1.3-1.3L92.5-24.7L92.5-24.7z M83-25.9c0.1,0,0.2,0,0.3-0.1c0.5-0.1,1-0.1,1.6-0.1c1.2,0,2.4,0.2,3.3,0.6
						l0.5,0.2c0.8,0.4,1.7,0.6,2.6,0.6h0.1v3.2c0,0.7-0.6,1.3-1.3,1.3h-5.8c-0.7,0-1.3-0.6-1.3-1.3C83-21.5,83-25.9,83-25.9z
						 M74.7-20.2c-0.5,0-0.9-0.3-1.2-0.7l0.9-0.5l6.5-3.8c0.3-0.2,0.6-0.3,0.9-0.4v4.1c0,0.7-0.6,1.3-1.3,1.3H74.7z M93.7-7h-3.9
						c-4.3,0-8.6-0.8-12.1-2.1c0.6-2,3-3.5,5.8-3.5l9,0.5l8-0.5c2.8,0,5.1,1.4,5.8,3.4C102.6-7.8,98.2-7,93.7-7z M109.2-20.2h-5.8
						c-0.7,0-1.3-0.5-1.3-1.1v-4c0.1,0,0.1,0,0.2,0.1l7.3,4.1l0.8,0.4C110.1-20.4,109.7-20.2,109.2-20.2z"/>
					<path d="M66.9,9.7c0.4,0.4,0.5,1,0.1,1.4l-8.1,9.4c-0.2,0.2-0.5,0.3-0.8,0.3c-0.2,0-0.5-0.1-0.7-0.2c-0.4-0.4-0.5-1-0.1-1.4
						l8.1-9.4C65.8,9.4,66.4,9.3,66.9,9.7z"/>
					<path d="M59-0.5c0.3,0.5,0.1,1.1-0.3,1.4L48,7.5c-0.2,0.1-0.3,0.2-0.5,0.2c-0.3,0-0.7-0.2-0.8-0.5c-0.3-0.5-0.2-1.1,0.3-1.4
						l10.7-6.6C58-1.2,58.7-1,59-0.5z"/>
				</g>
			</g>
		</g>
	</g>
</g>
<text transform="matrix(1 0 0 1 46.5312 58.1449)" class="st0 st1">口語表達</text>
</svg>
