<?xml version="1.0" encoding="utf-8"?>
<!-- Generator: Adobe Illustrator 19.1.0, SVG Export Plug-In . SVG Version: 6.00 Build 0)  -->
<svg version="1.1" id="圖層_1" xmlns="http://www.w3.org/2000/svg" xmlns:xlink="http://www.w3.org/1999/xlink" x="0px" y="0px"
	 viewBox="42 -55 100 125" style="enable-background:new 42 -55 100 125;" xml:space="preserve">
<style type="text/css">
	.st0{font-family:'LiHeiPro';}
	.st1{font-size:24px;}
</style>
<g>
	<g>
		<path d="M104.5,17.6c-0.3,0.5-0.8,0.7-1.3,0.7c-0.3,0-0.6-0.1-0.9-0.3l-10.6-6.9l-10.6,6.9c-0.3,0.2-0.6,0.3-0.9,0.3
			c-0.5,0-1-0.3-1.3-0.7c-0.5-0.7-0.3-1.7,0.5-2.2l10.7-7V-4.3c0-0.9,0.7-1.6,1.6-1.6s1.6,0.7,1.6,1.6V8.5l10.7,7
			C104.8,15.9,105,16.9,104.5,17.6z M128.6,12.3L128.6,12.3c1.6-7.6-2-7.9-2-7.9s-0.5-1.1-2-1.9c-1-0.6-2.3-1-4.1-0.9
			c-0.6,0-1.1,0.1-1.6,0.3l0,0h0c-0.7,0.2-1.3,0.5-1.8,0.9c-0.7,0.4-1.3,0.9-1.8,1.5c-0.9,0.9-1.7,2.1-2,3.5
			c-0.3,1.2-0.3,2.6,0.2,3.9c-0.7-0.1-1.4,0.3-0.7,2.9c0.5,1.9,1,2.4,1.4,2.4c0.4,2.7,1.9,6.2,6.6,6.6c4.6-0.2,6-3.6,6.5-6.3
			c0.4,0.3,1,0.1,1.7-2.3C129.4,13.1,129.1,12.4,128.6,12.3z M120.8,37c6.1,0,11.7-2.5,15.7-6.5c-0.1-1.7-0.7-3.9-3-4.5
			c-3.9-1-7.2-3.3-7.2-3.3l-2.5,7.9l-0.5,1.5l0,0l-0.4,1.3l-1.3-3.7c3.3-4.7-0.9-4.5-0.9-4.5s-4.2-0.2-0.9,4.5l-1.3,3.8l-0.4-1.3
			l-3-9.4c0,0-3.2,2.3-7.2,3.3c-2.3,0.6-2.9,2.8-3,4.5C109.1,34.6,114.7,37,120.8,37z M70.9,12.3L70.9,12.3c1.6-7.6-2-7.9-2-7.9
			s-0.5-1.1-2-1.9c-1-0.6-2.3-1-4.1-0.9c-0.6,0-1.1,0.1-1.6,0.3l0,0h0c-0.7,0.2-1.3,0.5-1.8,0.9c-0.7,0.4-1.3,0.9-1.8,1.5
			c-0.9,0.9-1.7,2.1-2,3.5c-0.3,1.2-0.3,2.6,0.2,3.9c-0.7-0.1-1.4,0.3-0.7,2.9c0.5,1.9,1,2.4,1.4,2.4c0.4,2.7,1.9,6.2,6.6,6.6
			c4.6-0.2,6-3.6,6.5-6.3c0.4,0.3,1,0.1,1.7-2.3C71.8,13.1,71.4,12.4,70.9,12.3z M63.2,37c6.1,0,11.7-2.5,15.7-6.5
			c-0.1-1.7-0.7-3.9-3-4.5c-3.9-1-7.2-3.3-7.2-3.3l-2.5,7.9l-0.5,1.5l0,0l-0.4,1.3l-1.3-3.7c3.3-4.7-0.9-4.5-0.9-4.5
			S59,25,62.3,29.7L61,33.4l-0.4-1.3l-3-9.4c0,0-3.2,2.3-7.2,3.3c-2.3,0.6-2.9,2.8-3,4.5C51.5,34.6,57,37,63.2,37z M99.5-36.4
			L99.5-36.4c1.6-7.6-2-7.9-2-7.9s-0.5-1.1-2-1.9c-1-0.6-2.3-1-4.1-0.9c-0.6,0-1.1,0.1-1.6,0.3l0,0h0c-0.7,0.2-1.3,0.5-1.8,0.9
			c-0.7,0.4-1.3,0.9-1.8,1.5c-0.9,0.9-1.7,2.1-2,3.5c-0.3,1.2-0.3,2.6,0.2,3.9c-0.7-0.1-1.4,0.3-0.7,2.9c0.5,1.9,1,2.4,1.4,2.4
			c0.4,2.7,1.9,6.2,6.6,6.6c4.6-0.2,6-3.6,6.5-6.3c0.4,0.3,1,0.1,1.7-2.3C100.4-35.5,100-36.2,99.5-36.4z M91.8-11.6
			c6.1,0,11.7-2.5,15.7-6.5c-0.1-1.7-0.7-3.9-3-4.5c-3.9-1-7.2-3.3-7.2-3.3L94.8-18l-0.5,1.5l0,0L94-15.3L92.6-19
			c3.3-4.7-0.9-4.5-0.9-4.5s-4.2-0.2-0.9,4.5l-1.3,3.8l-0.4-1.3l-3-9.4c0,0-3.2,2.3-7.2,3.3c-2.3,0.6-2.9,2.8-3,4.5
			C80.1-14.1,85.6-11.6,91.8-11.6z"/>
	</g>
</g>
<text transform="matrix(1 0 0 1 46.1717 60.8103)" class="st0 st1">團隊合作</text>
</svg>
