<?xml version="1.0" encoding="utf-8"?>
<!-- Generator: Adobe Illustrator 19.1.0, SVG Export Plug-In . SVG Version: 6.00 Build 0)  -->
<svg version="1.1" id="圖層_1" xmlns="http://www.w3.org/2000/svg" xmlns:xlink="http://www.w3.org/1999/xlink" x="0px" y="0px"
	 viewBox="37 -48.5 90 112.5" style="enable-background:new 37 -48.5 90 112.5;" xml:space="preserve">
<style type="text/css">
	.st0{font-family:'LiHeiPro';}
	.st1{font-size:24px;}
</style>
<path d="M118.6,11.1c0-0.1,0-0.1,0.1-0.2c1.6-4.2,2.6-8.8,2.7-13.6l0,0l0,0c0-0.3,0-0.6,0-0.9c0-22.1-17.9-40-40-40s-40,17.9-40,40
	c0,4.6,0.8,9,2.2,13.1l0,0l0,0c5.4,15.7,20.3,27,37.8,27c16.1,0,30-9.6,36.4-23.3c0-0.1,0.1-0.1,0.1-0.2
	C118.1,12.4,118.4,11.8,118.6,11.1z M114.9-2.6v-1.1h-1.1v1.1h-2.5v-1.1h-1.1v1.1h-2.5v-1.1h-1.1v1.1h-2.9v2.9H85.4v-4.7H93h1v-1.1
	v-2.6c0.7-0.2,1.3-0.7,1.6-1.4h17.9c0.3,1.2,1.3,2.2,2.5,2.4c0.1,1.2,0.2,2.3,0.2,3.5c0,0.3,0,0.6,0,0.9L114.9-2.6L114.9-2.6z
	 M81.4-38.4c15.9,0,29.3,10.7,33.5,25.2c-0.1,0.1-0.2,0.1-0.3,0.2l-6.9-6.7V-20h-0.3l0,0l0,0H85.8v-6.5h-5.4v6.5h-2.5v-6.5h-5.4v6.5
	H70v-6.5h-5.4v6.5h-5.1c-0.2-1-1.2-1.8-2.3-1.8c-1.3,0-2.3,1.1-2.3,2.4c0,1.1,0.8,2,1.8,2.3v2.2v1.1h1.1h18.8c0.2,1,1.2,1.8,2.3,1.8
	c1.3,0,2.3-1.1,2.3-2.4s-1-2.4-2.3-2.4c-1.1,0-2,0.8-2.3,1.8H57.7v-2.2c0.9-0.2,1.5-0.9,1.7-1.7h31.4v2.4h13.3v-2.4h2.9l7,6.7
	c-0.3,0.5-0.5,1-0.5,1.6H95.8c-0.1-1.2-1.1-2.2-2.3-2.2c-1.3,0-2.3,1.1-2.3,2.4c0,1.1,0.8,2,1.8,2.3v2.6H75.3C75-9.1,72-12,68.3-12
	c-3.7,0-6.7,2.9-7,6.5h-1.8v-1.4v-0.4V-8h-3.6v-1.8h-8.6v4h8.6v-1.1h2.5v1.4v1.1v1.8h-2.5v-1.1h-8.6v4h8.6v-1.8h3.6v-1.1v-1.8h1.8
	c0.3,3.6,3.3,6.5,7,6.5c3.7,0,6.7-2.9,7-6.5h9v4.7v1.1h1.1h18.3v4.3H81.1c-0.1-1.8-1.6-3.2-3.4-3.2c-1.8,0-3.3,1.4-3.4,3.2H60.9
	c-0.2-1-1.2-1.8-2.3-1.8c-1.3,0-2.3,1.1-2.3,2.4s1,2.4,2.3,2.4c1.1,0,2-0.8,2.3-1.8h13.5c0.4,1.5,1.7,2.5,3.3,2.5
	c1.6,0,2.9-1.1,3.3-2.5h7v2h2.5v-2h13.3v4.3h-54c-2.1-4.5-3.2-9.4-3.2-14.7C46.5-22.8,62.1-38.4,81.4-38.4z M81.4,31.4
	c-13.6,0-25.4-7.8-31.1-19.2h29.4v6.4H85v-6.4h2.2v6.4h5.4v-6.4h2.2v6.4h5.4v-6.4h3.6v2.9h2.9v1.1h1.1v-1.1h2.5v1
	C103.9,25.3,93.4,31.4,81.4,31.4z"/>
<text transform="matrix(1 0 0 1 48.02 58.3408)" class="st0 st1">科技業</text>
</svg>
