<?xml version="1.0" encoding="utf-8"?>
<!-- Generator: Adobe Illustrator 19.1.0, SVG Export Plug-In . SVG Version: 6.00 Build 0)  -->
<svg version="1.1" id="圖層_1" xmlns="http://www.w3.org/2000/svg" xmlns:xlink="http://www.w3.org/1999/xlink" x="0px" y="0px"
	 viewBox="42 -55 100 125" style="enable-background:new 42 -55 100 125;" xml:space="preserve">
<style type="text/css">
	.st0{font-family:'LiHeiPro';}
	.st1{font-size:24px;}
</style>
<ellipse cx="107.7" cy="-43.9" rx="10" ry="6.8"/>
<path d="M114.4,16.5c0.4-0.4-6.2-13.1-6.2-13.1c-0.4-0.2-0.6-0.4-1.2-0.4c-1.3,0.9-2.9,1.4-4.8,1.8l-1.7,2.9l5.6,9.5l1.2-0.2
	l1.9,18.1c0,1.1,1,1.8,3.1,1.8c2.1-0.2,2.9-1.1,2.9-2L114.4,16.5z"/>
<path d="M111.9-24.8l0.6-3.6c0.4-2.9-1.3-5-4.8-6.3c-1.7-0.9-3.7-1.4-6.2-1.6c-4.6-0.4-8.8,0.5-11.5,2.3c0-0.9-0.2-1.6-0.6-2.3
	c0.8-0.7,1.2-1.6,1.3-2.7l0.2-0.9c0.6-3.2-2.9-6.3-7.9-6.6c-5-0.4-9.2,2-9.8,5.2l-0.2,0.9c-0.2,1.1,0,2,0.4,2.9
	c-0.8,0.7-1.9,0.2-3.3,3.1c-1.2,2.3-5.8,23.7-3.1,26C70.2-6,71.2-6.3,76-6s8.8-0.2,9.4-3.4l0.4-2.3l2.3,0.2L86.9-4
	c-0.4,2,0.4,3.6,2.1,4.8l-6.2,14.4L70,34.1c-0.8,1.1-0.8,2.2,1.5,3.1c2.3,0.9,3.8,0,4.6-0.9L91,18.5c0.4-0.2,1.2,0.4,1.3,0.4
	l1.7-4.3l6.3-11.1c3.1-0.4,5.6-1.6,7.1-3.4c0.4,1.3,1.9,2.2,3.5,2c1.7-0.2,3.1-1.3,2.9-2.7L111.9-24.8z M87.1-17.5l2.3-13.8
	c1.2-0.9,2.7-1.6,4.4-2.3c-1.2,0.9-2.1,2-2.1,3.4l-2.1,12.8H87.1z"/>
<text transform="matrix(1 0 0 1 45.0084 62.4054)" class="st0 st1">旅遊經驗</text>
</svg>
